<?xml version="1.0" encoding="utf-8" standalone="no"?>
<!DOCTYPE svg PUBLIC "-//W3C//DTD SVG 1.1//EN"
  "http://www.w3.org/Graphics/SVG/1.1/DTD/svg11.dtd">
<svg xmlns:xlink="http://www.w3.org/1999/xlink" width="388.698125pt" height="310.86825pt" viewBox="0 0 388.698125 310.86825" xmlns="http://www.w3.org/2000/svg" version="1.1">
 <metadata>
  <rdf:RDF xmlns:dc="http://purl.org/dc/elements/1.1/" xmlns:cc="http://creativecommons.org/ns#" xmlns:rdf="http://www.w3.org/1999/02/22-rdf-syntax-ns#">
   <cc:Work>
    <dc:type rdf:resource="http://purl.org/dc/dcmitype/StillImage"/>
    <dc:date>2022-08-04T14:39:54.956264</dc:date>
    <dc:format>image/svg+xml</dc:format>
    <dc:creator>
     <cc:Agent>
      <dc:title>Matplotlib v3.5.2, https://matplotlib.org/</dc:title>
     </cc:Agent>
    </dc:creator>
   </cc:Work>
  </rdf:RDF>
 </metadata>
 <defs>
  <style type="text/css">*{stroke-linejoin: round; stroke-linecap: butt}</style>
 </defs>
 <g id="figure_1">
  <g id="patch_1">
   <path d="M 0 310.86825 
L 388.698125 310.86825 
L 388.698125 0 
L 0 0 
z
" style="fill: #ffffff"/>
  </g>
  <g id="axes_1">
   <g id="patch_2">
    <path d="M 24.378125 273.312 
L 381.498125 273.312 
L 381.498125 7.2 
L 24.378125 7.2 
z
" style="fill: #ffffff"/>
   </g>
   <g id="matplotlib.axis_1">
    <g id="xtick_1">
     <g id="line2d_1">
      <defs>
       <path id="m342d961389" d="M 0 0 
L 0 3.5 
" style="stroke: #000000; stroke-width: 0.8"/>
      </defs>
      <g>
       <use xlink:href="#m342d961389" x="76.681282" y="273.312" style="stroke: #000000; stroke-width: 0.8"/>
      </g>
     </g>
     <g id="text_1">
      <!-- 10 -->
      <g transform="translate(70.318782 287.910437)scale(0.1 -0.1)">
       <defs>
        <path id="DejaVuSans-31" d="M 794 531 
L 1825 531 
L 1825 4091 
L 703 3866 
L 703 4441 
L 1819 4666 
L 2450 4666 
L 2450 531 
L 3481 531 
L 3481 0 
L 794 0 
L 794 531 
z
" transform="scale(0.015625)"/>
        <path id="DejaVuSans-30" d="M 2034 4250 
Q 1547 4250 1301 3770 
Q 1056 3291 1056 2328 
Q 1056 1369 1301 889 
Q 1547 409 2034 409 
Q 2525 409 2770 889 
Q 3016 1369 3016 2328 
Q 3016 3291 2770 3770 
Q 2525 4250 2034 4250 
z
M 2034 4750 
Q 2819 4750 3233 4129 
Q 3647 3509 3647 2328 
Q 3647 1150 3233 529 
Q 2819 -91 2034 -91 
Q 1250 -91 836 529 
Q 422 1150 422 2328 
Q 422 3509 836 4129 
Q 1250 4750 2034 4750 
z
" transform="scale(0.015625)"/>
       </defs>
       <use xlink:href="#DejaVuSans-31"/>
       <use xlink:href="#DejaVuSans-30" x="63.623047"/>
      </g>
     </g>
    </g>
    <g id="xtick_2">
     <g id="line2d_2">
      <g>
       <use xlink:href="#m342d961389" x="148.827311" y="273.312" style="stroke: #000000; stroke-width: 0.8"/>
      </g>
     </g>
     <g id="text_2">
      <!-- 20 -->
      <g transform="translate(142.464811 287.910437)scale(0.1 -0.1)">
       <defs>
        <path id="DejaVuSans-32" d="M 1228 531 
L 3431 531 
L 3431 0 
L 469 0 
L 469 531 
Q 828 903 1448 1529 
Q 2069 2156 2228 2338 
Q 2531 2678 2651 2914 
Q 2772 3150 2772 3378 
Q 2772 3750 2511 3984 
Q 2250 4219 1831 4219 
Q 1534 4219 1204 4116 
Q 875 4013 500 3803 
L 500 4441 
Q 881 4594 1212 4672 
Q 1544 4750 1819 4750 
Q 2544 4750 2975 4387 
Q 3406 4025 3406 3419 
Q 3406 3131 3298 2873 
Q 3191 2616 2906 2266 
Q 2828 2175 2409 1742 
Q 1991 1309 1228 531 
z
" transform="scale(0.015625)"/>
       </defs>
       <use xlink:href="#DejaVuSans-32"/>
       <use xlink:href="#DejaVuSans-30" x="63.623047"/>
      </g>
     </g>
    </g>
    <g id="xtick_3">
     <g id="line2d_3">
      <g>
       <use xlink:href="#m342d961389" x="220.97334" y="273.312" style="stroke: #000000; stroke-width: 0.8"/>
      </g>
     </g>
     <g id="text_3">
      <!-- 30 -->
      <g transform="translate(214.61084 287.910437)scale(0.1 -0.1)">
       <defs>
        <path id="DejaVuSans-33" d="M 2597 2516 
Q 3050 2419 3304 2112 
Q 3559 1806 3559 1356 
Q 3559 666 3084 287 
Q 2609 -91 1734 -91 
Q 1441 -91 1130 -33 
Q 819 25 488 141 
L 488 750 
Q 750 597 1062 519 
Q 1375 441 1716 441 
Q 2309 441 2620 675 
Q 2931 909 2931 1356 
Q 2931 1769 2642 2001 
Q 2353 2234 1838 2234 
L 1294 2234 
L 1294 2753 
L 1863 2753 
Q 2328 2753 2575 2939 
Q 2822 3125 2822 3475 
Q 2822 3834 2567 4026 
Q 2313 4219 1838 4219 
Q 1578 4219 1281 4162 
Q 984 4106 628 3988 
L 628 4550 
Q 988 4650 1302 4700 
Q 1616 4750 1894 4750 
Q 2613 4750 3031 4423 
Q 3450 4097 3450 3541 
Q 3450 3153 3228 2886 
Q 3006 2619 2597 2516 
z
" transform="scale(0.015625)"/>
       </defs>
       <use xlink:href="#DejaVuSans-33"/>
       <use xlink:href="#DejaVuSans-30" x="63.623047"/>
      </g>
     </g>
    </g>
    <g id="xtick_4">
     <g id="line2d_4">
      <g>
       <use xlink:href="#m342d961389" x="293.119369" y="273.312" style="stroke: #000000; stroke-width: 0.8"/>
      </g>
     </g>
     <g id="text_4">
      <!-- 40 -->
      <g transform="translate(286.756869 287.910437)scale(0.1 -0.1)">
       <defs>
        <path id="DejaVuSans-34" d="M 2419 4116 
L 825 1625 
L 2419 1625 
L 2419 4116 
z
M 2253 4666 
L 3047 4666 
L 3047 1625 
L 3713 1625 
L 3713 1100 
L 3047 1100 
L 3047 0 
L 2419 0 
L 2419 1100 
L 313 1100 
L 313 1709 
L 2253 4666 
z
" transform="scale(0.015625)"/>
       </defs>
       <use xlink:href="#DejaVuSans-34"/>
       <use xlink:href="#DejaVuSans-30" x="63.623047"/>
      </g>
     </g>
    </g>
    <g id="xtick_5">
     <g id="line2d_5">
      <g>
       <use xlink:href="#m342d961389" x="365.265398" y="273.312" style="stroke: #000000; stroke-width: 0.8"/>
      </g>
     </g>
     <g id="text_5">
      <!-- 50 -->
      <g transform="translate(358.902898 287.910437)scale(0.1 -0.1)">
       <defs>
        <path id="DejaVuSans-35" d="M 691 4666 
L 3169 4666 
L 3169 4134 
L 1269 4134 
L 1269 2991 
Q 1406 3038 1543 3061 
Q 1681 3084 1819 3084 
Q 2600 3084 3056 2656 
Q 3513 2228 3513 1497 
Q 3513 744 3044 326 
Q 2575 -91 1722 -91 
Q 1428 -91 1123 -41 
Q 819 9 494 109 
L 494 744 
Q 775 591 1075 516 
Q 1375 441 1709 441 
Q 2250 441 2565 725 
Q 2881 1009 2881 1497 
Q 2881 1984 2565 2268 
Q 2250 2553 1709 2553 
Q 1456 2553 1204 2497 
Q 953 2441 691 2322 
L 691 4666 
z
" transform="scale(0.015625)"/>
       </defs>
       <use xlink:href="#DejaVuSans-35"/>
       <use xlink:href="#DejaVuSans-30" x="63.623047"/>
      </g>
     </g>
    </g>
    <g id="text_6">
     <!-- 2θ -->
     <g transform="translate(196.6975 301.588562)scale(0.1 -0.1)">
      <defs>
       <path id="DejaVuSans-3b8" d="M 2953 2219 
L 963 2219 
Q 1009 1284 1225 888 
Q 1494 400 1959 400 
Q 2428 400 2688 891 
Q 2916 1322 2953 2219 
z
M 2944 2750 
Q 2856 3638 2688 3950 
Q 2419 4444 1959 4444 
Q 1481 4444 1228 3956 
Q 1028 3563 969 2750 
L 2944 2750 
z
M 1959 4913 
Q 2709 4913 3138 4250 
Q 3566 3591 3566 2422 
Q 3566 1256 3138 594 
Q 2709 -72 1959 -72 
Q 1206 -72 781 594 
Q 353 1256 353 2422 
Q 353 3591 781 4250 
Q 1206 4913 1959 4913 
z
" transform="scale(0.015625)"/>
      </defs>
      <use xlink:href="#DejaVuSans-32"/>
      <use xlink:href="#DejaVuSans-3b8" x="63.623047"/>
     </g>
    </g>
   </g>
   <g id="matplotlib.axis_2">
    <g id="text_7">
     <!-- Intensity -->
     <g transform="translate(14.798438 162.0185)rotate(-90)scale(0.1 -0.1)">
      <defs>
       <path id="DejaVuSans-49" d="M 628 4666 
L 1259 4666 
L 1259 0 
L 628 0 
L 628 4666 
z
" transform="scale(0.015625)"/>
       <path id="DejaVuSans-6e" d="M 3513 2113 
L 3513 0 
L 2938 0 
L 2938 2094 
Q 2938 2591 2744 2837 
Q 2550 3084 2163 3084 
Q 1697 3084 1428 2787 
Q 1159 2491 1159 1978 
L 1159 0 
L 581 0 
L 581 3500 
L 1159 3500 
L 1159 2956 
Q 1366 3272 1645 3428 
Q 1925 3584 2291 3584 
Q 2894 3584 3203 3211 
Q 3513 2838 3513 2113 
z
" transform="scale(0.015625)"/>
       <path id="DejaVuSans-74" d="M 1172 4494 
L 1172 3500 
L 2356 3500 
L 2356 3053 
L 1172 3053 
L 1172 1153 
Q 1172 725 1289 603 
Q 1406 481 1766 481 
L 2356 481 
L 2356 0 
L 1766 0 
Q 1100 0 847 248 
Q 594 497 594 1153 
L 594 3053 
L 172 3053 
L 172 3500 
L 594 3500 
L 594 4494 
L 1172 4494 
z
" transform="scale(0.015625)"/>
       <path id="DejaVuSans-65" d="M 3597 1894 
L 3597 1613 
L 953 1613 
Q 991 1019 1311 708 
Q 1631 397 2203 397 
Q 2534 397 2845 478 
Q 3156 559 3463 722 
L 3463 178 
Q 3153 47 2828 -22 
Q 2503 -91 2169 -91 
Q 1331 -91 842 396 
Q 353 884 353 1716 
Q 353 2575 817 3079 
Q 1281 3584 2069 3584 
Q 2775 3584 3186 3129 
Q 3597 2675 3597 1894 
z
M 3022 2063 
Q 3016 2534 2758 2815 
Q 2500 3097 2075 3097 
Q 1594 3097 1305 2825 
Q 1016 2553 972 2059 
L 3022 2063 
z
" transform="scale(0.015625)"/>
       <path id="DejaVuSans-73" d="M 2834 3397 
L 2834 2853 
Q 2591 2978 2328 3040 
Q 2066 3103 1784 3103 
Q 1356 3103 1142 2972 
Q 928 2841 928 2578 
Q 928 2378 1081 2264 
Q 1234 2150 1697 2047 
L 1894 2003 
Q 2506 1872 2764 1633 
Q 3022 1394 3022 966 
Q 3022 478 2636 193 
Q 2250 -91 1575 -91 
Q 1294 -91 989 -36 
Q 684 19 347 128 
L 347 722 
Q 666 556 975 473 
Q 1284 391 1588 391 
Q 1994 391 2212 530 
Q 2431 669 2431 922 
Q 2431 1156 2273 1281 
Q 2116 1406 1581 1522 
L 1381 1569 
Q 847 1681 609 1914 
Q 372 2147 372 2553 
Q 372 3047 722 3315 
Q 1072 3584 1716 3584 
Q 2034 3584 2315 3537 
Q 2597 3491 2834 3397 
z
" transform="scale(0.015625)"/>
       <path id="DejaVuSans-69" d="M 603 3500 
L 1178 3500 
L 1178 0 
L 603 0 
L 603 3500 
z
M 603 4863 
L 1178 4863 
L 1178 4134 
L 603 4134 
L 603 4863 
z
" transform="scale(0.015625)"/>
       <path id="DejaVuSans-79" d="M 2059 -325 
Q 1816 -950 1584 -1140 
Q 1353 -1331 966 -1331 
L 506 -1331 
L 506 -850 
L 844 -850 
Q 1081 -850 1212 -737 
Q 1344 -625 1503 -206 
L 1606 56 
L 191 3500 
L 800 3500 
L 1894 763 
L 2988 3500 
L 3597 3500 
L 2059 -325 
z
" transform="scale(0.015625)"/>
      </defs>
      <use xlink:href="#DejaVuSans-49"/>
      <use xlink:href="#DejaVuSans-6e" x="29.492188"/>
      <use xlink:href="#DejaVuSans-74" x="92.871094"/>
      <use xlink:href="#DejaVuSans-65" x="132.080078"/>
      <use xlink:href="#DejaVuSans-6e" x="193.603516"/>
      <use xlink:href="#DejaVuSans-73" x="256.982422"/>
      <use xlink:href="#DejaVuSans-69" x="309.082031"/>
      <use xlink:href="#DejaVuSans-74" x="336.865234"/>
      <use xlink:href="#DejaVuSans-79" x="376.074219"/>
     </g>
    </g>
   </g>
   <g id="line2d_6">
    <path d="M 40.610852 256.908081 
L 40.904841 257.489923 
L 41.140032 257.54682 
L 41.512418 257.588744 
L 42.061198 257.971941 
L 42.25719 257.849356 
L 42.707973 257.625206 
L 43.001962 257.789615 
L 43.276352 257.782114 
L 43.491944 257.84435 
L 43.825131 258.020829 
L 44.256315 257.825275 
L 44.432708 257.912061 
L 44.687499 258.056568 
L 44.961889 258.033857 
L 45.275477 258.148107 
L 46.039848 257.826415 
L 46.25544 258.053584 
L 46.549429 258.239187 
L 46.78462 258.114633 
L 47.176605 257.713661 
L 47.490193 257.72704 
L 48.136969 257.622975 
L 48.568153 257.803154 
L 48.862142 257.58594 
L 49.097333 257.545969 
L 49.352123 257.559124 
L 50.312487 256.97483 
L 50.567278 256.980652 
L 51.03766 256.466202 
L 52.742796 254.645721 
L 53.017185 253.809922 
L 53.487568 252.329877 
L 53.95795 250.479305 
L 55.114306 244.634394 
L 56.682247 231.935918 
L 56.839042 231.995835 
L 57.329023 232.73709 
L 57.525016 233.888292 
L 57.877802 237.715414 
L 58.583376 244.715461 
L 59.230152 249.908738 
L 59.641736 252.001766 
L 60.504104 254.872768 
L 61.013684 255.797672 
L 61.248876 255.98824 
L 61.444868 256.102918 
L 61.778056 256.75611 
L 62.091644 257.150556 
L 62.542427 257.429691 
L 62.816817 257.536423 
L 63.306798 257.522079 
L 63.561589 257.645152 
L 63.77718 257.674199 
L 64.384758 258.078126 
L 64.835541 258.104576 
L 65.070732 258.136846 
L 65.423518 258.21445 
L 66.031096 258.250381 
L 66.227088 258.354349 
L 66.560276 258.551973 
L 67.050257 258.395307 
L 67.285448 258.390443 
L 67.50104 258.594032 
L 67.755831 258.756014 
L 68.5594 258.621232 
L 68.990584 258.740931 
L 69.598161 258.779628 
L 69.89215 258.783326 
L 70.146941 258.825205 
L 70.715319 258.98477 
L 71.244499 258.806546 
L 71.518889 258.840223 
L 71.793279 258.869868 
L 72.126466 259.055933 
L 72.655646 258.982774 
L 73.008433 259.038531 
L 73.302422 259.00955 
L 73.557212 259.054791 
L 74.654771 258.676008 
L 75.379944 258.496743 
L 75.869925 258.057635 
L 76.732293 257.521609 
L 77.08508 257.061541 
L 77.437866 256.402812 
L 78.770616 253.758748 
L 79.338995 253.330464 
L 79.613384 253.762092 
L 80.573748 255.401937 
L 80.906936 255.963651 
L 81.279322 256.546018 
L 82.337682 257.053522 
L 82.553274 256.908694 
L 82.90606 256.665672 
L 83.200049 256.549393 
L 83.690031 256.17021 
L 83.98402 256.450198 
L 84.826788 257.031175 
L 85.257972 257.115092 
L 85.84595 257.81583 
L 86.335931 257.896408 
L 86.531924 257.874688 
L 86.708317 257.914915 
L 87.080703 258.202271 
L 87.374692 258.205698 
L 87.786277 258.166471 
L 88.060667 258.10783 
L 88.629045 258.550233 
L 89.001431 258.388432 
L 89.256222 258.260312 
L 89.902997 258.552683 
L 90.765365 258.088864 
L 91.020155 258.140684 
L 91.353343 258.280689 
L 92.058916 257.745005 
L 92.725291 256.777275 
L 93.332868 256.091573 
L 94.254033 253.480403 
L 95.861173 247.535502 
L 96.272757 247.437996 
L 96.488349 247.580433 
L 96.74314 248.212099 
L 97.174324 249.465237 
L 98.369879 253.932556 
L 99.075452 255.441275 
L 99.781025 256.409128 
L 100.035816 256.512178 
L 100.4474 256.508695 
L 100.800187 256.797237 
L 101.054977 256.928828 
L 102.230933 256.966483 
L 103.975268 257.413794 
L 105.543209 258.058527 
L 106.091988 258.206428 
L 106.366378 258.231813 
L 106.621168 258.206714 
L 107.071951 258.327222 
L 107.757925 258.035191 
L 108.130311 258.045727 
L 108.4243 257.775104 
L 108.757488 257.851273 
L 109.169072 257.32462 
L 109.423863 257.190284 
L 109.933443 257.088129 
L 110.305829 257.030037 
L 110.697815 256.877788 
L 110.874208 256.907097 
L 111.187796 257.037886 
L 111.422987 256.982559 
L 112.010965 257.211518 
L 112.42255 257.407428 
L 112.912531 257.434705 
L 113.226119 257.460524 
L 113.990491 257.905768 
L 114.382476 257.862266 
L 115.06845 258.23526 
L 115.401638 258.436641 
L 116.048413 258.537537 
L 116.557994 258.618548 
L 116.949979 258.724655 
L 117.381163 258.820888 
L 117.616354 258.827915 
L 117.910343 258.810194 
L 118.302328 258.936874 
L 118.596317 258.905481 
L 118.870707 258.964516 
L 119.105898 259.015214 
L 119.360689 259.040779 
L 120.183858 258.83019 
L 120.634641 258.544106 
L 120.869832 258.493833 
L 121.516607 258.217238 
L 121.7126 258.028458 
L 122.51617 256.963651 
L 123.143346 257.188598 
L 123.770523 256.855547 
L 123.946916 256.83693 
L 124.142909 256.83614 
L 124.63289 257.229043 
L 125.260067 257.281409 
L 125.69125 257.546227 
L 126.083236 257.836422 
L 126.279228 257.652405 
L 126.534019 257.522923 
L 126.808408 257.769184 
L 127.180794 258.080905 
L 127.396386 257.823908 
L 127.631577 257.689747 
L 127.984364 257.591239 
L 128.180357 257.660082 
L 128.670338 257.891346 
L 128.866331 257.841155 
L 129.179919 257.784331 
L 129.552305 257.894734 
L 130.179481 258.130851 
L 130.395073 258.041744 
L 130.630264 258.005981 
L 131.27704 258.163534 
L 131.53183 258.017611 
L 132.531393 256.794293 
L 133.746547 254.231416 
L 134.256128 253.309069 
L 134.785308 252.997328 
L 134.942102 253.192781 
L 135.177293 253.386887 
L 135.392885 253.581569 
L 136.000462 254.882494 
L 136.314051 255.460259 
L 136.568841 255.907359 
L 137.254815 257.492607 
L 137.783995 258.147263 
L 138.430771 258.720793 
L 138.646363 258.74288 
L 139.155944 259.068928 
L 139.489131 259.188717 
L 139.959513 259.346535 
L 140.292701 259.338398 
L 140.684686 259.38064 
L 140.880679 259.417584 
L 141.488256 259.167877 
L 141.841042 259.379798 
L 142.115432 259.383271 
L 142.350623 259.415677 
L 142.781807 259.443041 
L 143.036597 259.491597 
L 143.428583 259.641191 
L 144.114557 259.613426 
L 144.31055 259.59677 
L 144.624138 259.456048 
L 145.074921 259.710916 
L 145.780494 259.960014 
L 145.976487 259.963278 
L 146.486068 259.657475 
L 146.760457 259.833365 
L 147.034847 259.913966 
L 147.779619 260.026497 
L 149.308361 260.215819 
L 149.62195 260.325874 
L 150.268725 260.123472 
L 150.621512 260.226605 
L 152.54224 260.156735 
L 153.051821 260.409549 
L 153.483004 260.282682 
L 153.85539 260.276812 
L 154.40417 260.25676 
L 154.796155 260.085736 
L 155.18814 260.208343 
L 155.678122 260.152537 
L 155.952511 260.118135 
L 156.560089 260.271841 
L 157.246063 260.36864 
L 157.500853 260.370271 
L 158.030033 260.249182 
L 158.441618 260.390805 
L 158.735607 260.357724 
L 159.068794 260.417199 
L 159.71557 260.018006 
L 160.029158 259.926084 
L 160.715132 259.91823 
L 161.812691 259.715356 
L 162.028283 259.733931 
L 162.63586 259.459513 
L 162.949448 259.367025 
L 163.243437 259.304677 
L 164.987771 259.276907 
L 165.55615 259.438209 
L 165.869738 259.341262 
L 166.202926 259.533275 
L 166.790904 259.953929 
L 167.280885 259.977322 
L 167.927661 260.29507 
L 168.339245 260.106832 
L 168.711631 260.139885 
L 169.182014 260.139643 
L 170.08358 260.308139 
L 170.33837 260.183445 
L 170.573561 260.135405 
L 170.945947 260.168744 
L 171.279135 260.155164 
L 171.475127 260.096822 
L 171.769116 259.969975 
L 172.396293 260.187578 
L 172.847076 259.934409 
L 173.082267 259.962317 
L 173.415454 260.030876 
L 173.983833 259.926147 
L 174.297421 260.047769 
L 174.630608 260.076679 
L 175.061792 260.063992 
L 175.277384 260.047812 
L 175.64977 259.858433 
L 176.198549 260.051514 
L 176.649332 260.107432 
L 176.845325 260.075414 
L 177.139314 260.01541 
L 177.668494 260.078956 
L 178.217273 259.628771 
L 178.57006 259.718498 
L 178.981645 259.880953 
L 179.589222 259.646634 
L 180.843575 258.943213 
L 181.078766 258.833198 
L 181.568747 258.592381 
L 182.058729 258.722844 
L 182.352718 258.668431 
L 183.195486 258.919234 
L 183.607071 259.11792 
L 183.90106 259.152935 
L 184.195049 259.236496 
L 184.724229 259.513505 
L 185.096615 259.491222 
L 185.527798 259.580132 
L 185.74339 259.61729 
L 186.154975 259.861804 
L 186.566559 259.70985 
L 187.193736 259.811846 
L 187.389728 259.843158 
L 188.702879 259.309399 
L 188.977269 259.29816 
L 189.19286 259.341085 
L 189.486849 259.428991 
L 189.918033 259.232659 
L 190.133625 259.162734 
L 190.329618 259.404588 
L 190.584408 259.598929 
L 191.779963 259.547299 
L 192.289544 259.596999 
L 193.661492 259.539512 
L 193.857485 259.589761 
L 194.367066 259.330628 
L 194.77865 259.044986 
L 195.05304 258.940889 
L 195.366628 258.879261 
L 195.915407 258.615709 
L 196.150599 258.522204 
L 196.718977 258.205498 
L 197.032565 258.310792 
L 197.542146 258.233349 
L 197.738139 258.275827 
L 198.188922 258.110419 
L 198.7573 258.528927 
L 199.03169 258.621865 
L 199.286481 258.65078 
L 199.992054 259.118152 
L 200.403639 259.183786 
L 201.030815 259.650963 
L 201.285605 259.723495 
L 201.657991 259.746146 
L 202.187171 259.746315 
L 202.579157 259.756297 
L 202.971142 259.730482 
L 203.323929 259.692857 
L 203.696315 259.669948 
L 203.990304 259.569719 
L 204.323491 259.693373 
L 204.480285 259.633803 
L 204.793873 259.472455 
L 205.127061 259.697737 
L 205.362252 259.760634 
L 206.499009 259.443652 
L 207.126185 259.75184 
L 207.831759 259.838541 
L 208.06695 259.816851 
L 208.890119 260.03877 
L 209.301704 260.00358 
L 209.576093 260.03729 
L 210.046476 259.927632 
L 210.301266 259.963715 
L 210.771648 260.042655 
L 211.046038 259.925196 
L 211.477222 259.732745 
L 211.751611 259.807797 
L 212.0652 259.681455 
L 212.417986 259.700864 
L 212.770773 259.591365 
L 213.12356 259.578605 
L 213.535144 259.259699 
L 213.966328 259.212612 
L 214.162321 259.10741 
L 214.534707 258.812361 
L 214.946291 258.966287 
L 215.377475 258.769461 
L 215.749861 258.895634 
L 216.455434 258.848467 
L 216.671026 258.817889 
L 217.043412 258.631441 
L 217.552993 258.914872 
L 217.768585 258.59002 
L 218.003776 258.37146 
L 218.650552 258.310984 
L 218.905342 258.354522 
L 219.23853 258.525727 
L 219.846107 258.451461 
L 220.767272 258.759015 
L 221.041662 258.765052 
L 221.35525 258.974608 
L 221.61004 259.132554 
L 222.237217 258.968406 
L 222.94279 259.212537 
L 223.883555 259.156527 
L 225.196705 259.012609 
L 225.627889 258.907038 
L 225.86308 258.880778 
L 226.235466 259.041008 
L 226.745047 259.310373 
L 227.039036 259.378319 
L 227.627014 259.178992 
L 227.823007 259.371222 
L 228.058198 259.492777 
L 228.861767 259.511055 
L 230.39051 259.792364 
L 231.252877 259.53541 
L 231.546866 259.424104 
L 231.782058 259.435309 
L 232.115245 259.460054 
L 232.389635 259.40747 
L 232.860017 259.539693 
L 233.232403 259.4071 
L 233.820381 259.412428 
L 234.290763 259.745849 
L 234.604351 259.710596 
L 235.17273 259.712468 
L 235.368723 259.832197 
L 235.603914 259.95744 
L 236.289888 259.718633 
L 236.623075 259.74601 
L 237.054259 259.700127 
L 237.250252 259.670285 
L 237.505042 259.620052 
L 237.759833 259.603705 
L 238.014623 259.574362 
L 238.406608 259.54588 
L 238.778994 259.536569 
L 239.072983 259.504159 
L 239.837354 259.533802 
L 240.288137 259.653476 
L 240.934913 259.462964 
L 241.797281 259.93478 
L 242.522453 259.895734 
L 242.816442 260.083726 
L 243.051633 260.116177 
L 243.326023 260.124359 
L 243.639611 260.15938 
L 244.031597 260.162021 
L 244.443181 260.245293 
L 245.932725 260.284633 
L 246.167916 260.3431 
L 247.304673 260.1756 
L 247.637861 260.135366 
L 248.167041 260.348655 
L 248.402232 260.296479 
L 248.676622 260.281937 
L 248.99021 260.233974 
L 249.225401 260.171699 
L 249.558589 260.217612 
L 249.930975 260.148347 
L 250.283761 260.18567 
L 250.871739 260.052085 
L 251.420518 260.178081 
L 252.616073 260.103653 
L 253.008059 259.874592 
L 253.204051 259.917693 
L 253.615636 260.158698 
L 254.066419 259.978746 
L 254.282011 259.973025 
L 254.654397 260.103291 
L 255.536364 259.872665 
L 255.791154 259.886191 
L 256.457529 259.683697 
L 256.69272 259.761628 
L 257.692282 259.593677 
L 258.123466 259.79469 
L 258.456654 259.845695 
L 258.82904 259.770706 
L 259.417018 259.904232 
L 259.965797 260.087435 
L 260.298984 260.075796 
L 260.769367 260.278822 
L 261.024157 260.339115 
L 261.416142 260.451055 
L 261.906124 260.498999 
L 262.219712 260.658123 
L 264.003245 260.582391 
L 264.297234 260.551147 
L 264.767616 260.527978 
L 265.72798 260.472051 
L 266.394355 260.331255 
L 266.590348 260.358853 
L 267.021531 260.188245 
L 267.511513 260.162638 
L 268.863862 259.836512 
L 269.295046 259.826136 
L 269.549836 259.930432 
L 269.785027 260.007873 
L 270.23581 259.842427 
L 270.686593 259.906871 
L 271.03938 260.018974 
L 271.490163 260.104857 
L 271.784152 260.135663 
L 272.136939 260.290387 
L 272.528924 260.187011 
L 272.764115 260.095241 
L 273.254097 260.377321 
L 273.528486 260.491972 
L 273.842075 260.264023 
L 274.116464 260.186654 
L 275.01803 260.295897 
L 275.312019 260.218677 
L 275.586409 260.462595 
L 275.860799 260.618173 
L 276.487975 260.397554 
L 277.193549 260.620209 
L 277.781526 260.580841 
L 278.702692 260.710134 
L 279.075078 260.471915 
L 279.584659 260.645342 
L 279.898247 260.758129 
L 281.191798 260.620992 
L 281.40739 260.66845 
L 281.68178 260.687103 
L 281.995368 260.727854 
L 282.328555 260.658336 
L 282.563746 260.65908 
L 282.936132 260.735911 
L 283.367316 260.58702 
L 283.739702 260.760567 
L 284.347279 260.709986 
L 284.719665 260.605045 
L 285.190048 260.380272 
L 285.405639 260.533196 
L 285.621231 260.558553 
L 285.895621 260.625163 
L 286.366003 260.711025 
L 286.738389 260.765452 
L 287.032378 260.719655 
L 287.541959 260.662857 
L 287.933944 260.68713 
L 288.247533 260.602049 
L 288.933507 260.942916 
L 289.521485 260.739959 
L 290.383852 260.839709 
L 290.619043 260.799526 
L 291.148223 260.958048 
L 291.736201 260.925738 
L 292.147786 260.95938 
L 292.755363 260.951226 
L 293.166947 260.878848 
L 293.402139 260.892965 
L 293.833322 261.14764 
L 294.186109 261.028824 
L 294.538896 261.068825 
L 295.362065 261.056479 
L 295.714851 261.08829 
L 296.342028 260.978148 
L 296.616418 261.00822 
L 297.047601 260.913484 
L 297.517984 261.044865 
L 298.007965 261.116268 
L 298.282355 261.070325 
L 299.027127 260.795643 
L 299.281917 260.960731 
L 299.595505 261.141219 
L 299.830697 261.101698 
L 300.144285 260.988178 
L 300.418674 260.975693 
L 300.751862 260.865326 
L 301.516233 261.006064 
L 301.731825 261.034867 
L 302.14341 261.214679 
L 302.456998 261.061885 
L 302.711788 261.029191 
L 303.378163 261.008486 
L 303.809347 260.933128 
L 304.867707 260.928993 
L 305.494883 260.761539 
L 305.965266 260.840666 
L 306.278854 260.713733 
L 307.748799 260.730707 
L 309.081548 260.930418 
L 309.689126 260.829856 
L 310.081111 260.878697 
L 310.688688 260.813801 
L 311.355063 260.793687 
L 312.001839 260.775828 
L 312.276228 260.791224 
L 312.785809 260.989413 
L 313.804971 260.801832 
L 314.196956 260.861828 
L 314.451746 260.812361 
L 314.765335 260.739588 
L 315.039724 260.661257 
L 315.255316 260.66777 
L 315.568904 260.715982 
L 316.000088 260.693432 
L 316.431272 260.834194 
L 316.940853 260.804359 
L 317.195643 260.827392 
L 317.685625 260.629119 
L 318.018812 260.786755 
L 318.293202 260.825997 
L 318.645988 260.860036 
L 318.88118 260.850991 
L 319.077172 260.883173 
L 319.449558 261.055177 
L 319.861143 260.977667 
L 320.115933 260.98156 
L 320.566716 260.838862 
L 320.958701 261.008663 
L 321.233091 260.970118 
L 321.468282 261.052371 
L 321.703473 261.062196 
L 322.134657 260.846594 
L 322.507043 261.026609 
L 323.11462 260.966749 
L 323.6634 261.016658 
L 324.153381 260.916869 
L 326.446495 261.04846 
L 326.760083 261.020184 
L 327.661649 260.801911 
L 328.798406 260.929121 
L 329.445182 260.932223 
L 329.75877 261.005486 
L 330.483943 260.827192 
L 330.719134 260.740277 
L 332.051884 260.791184 
L 332.522266 260.763362 
L 333.20824 260.762203 
L 333.443432 260.736241 
L 334.188204 260.887167 
L 334.638987 260.673506 
L 335.128968 260.904894 
L 335.403358 260.727126 
L 335.677747 260.63226 
L 336.814505 260.823624 
L 337.108494 260.886573 
L 337.343685 260.820529 
L 337.814067 260.737681 
L 338.382446 260.746782 
L 338.696034 260.720088 
L 339.362409 260.581515 
L 340.283574 260.81025 
L 341.008747 260.755717 
L 341.557526 260.799772 
L 342.184703 260.677905 
L 342.596287 260.911164 
L 342.949074 260.894285 
L 343.32146 260.862806 
L 343.615449 260.843358 
L 343.831041 260.845891 
L 344.203427 260.946722 
L 345.300985 260.942822 
L 345.771368 261.055989 
L 346.437743 261.006317 
L 347.04532 260.852724 
L 347.927286 261.048467 
L 348.319272 261.046985 
L 348.90725 260.759687 
L 349.279636 260.877736 
L 349.612823 260.922897 
L 350.004808 260.836561 
L 350.49479 260.871765 
L 351.043569 260.825227 
L 351.337558 260.796917 
L 352.121529 260.923502 
L 352.533113 260.936765 
L 353.552275 260.93877 
L 354.19905 260.868564 
L 354.767429 261.001517 
L 355.081017 260.971371 
L 355.316208 260.948519 
L 355.610197 260.940713 
L 356.041381 260.987765 
L 357.94251 260.784026 
L 358.236498 260.699286 
L 359.157664 260.854261 
L 359.706443 260.777688 
L 360.078829 260.656122 
L 360.764803 260.808799 
L 360.980395 260.834263 
L 361.254785 260.902712 
L 361.999557 260.694508 
L 362.528737 260.825754 
L 362.881524 260.82805 
L 363.430303 260.886055 
L 364.625858 260.755229 
L 364.978645 260.701242 
L 365.253034 260.724993 
L 365.253034 260.724993 
" clip-path="url(#p1d02191f80)" style="fill: none; stroke: #1f77b4; stroke-width: 1.5; stroke-linecap: square"/>
   </g>
   <g id="line2d_7">
    <path d="M 40.622696 226.566294 
L 41.093089 226.26813 
L 41.60244 226.246637 
L 44.111678 226.526321 
L 44.738627 226.519753 
L 47.011949 226.727341 
L 47.874094 226.891157 
L 49.128713 226.870067 
L 50.775086 226.925519 
L 51.794509 226.969041 
L 54.577181 227.03377 
L 55.400368 227.110692 
L 58.457916 227.146477 
L 59.986691 227.146205 
L 70.021482 227.238362 
L 70.72707 227.160659 
L 71.550256 227.200217 
L 72.647597 227.179954 
L 73.431825 227.155394 
L 76.136579 227.226661 
L 77.194962 227.219386 
L 77.939509 227.274419 
L 82.604471 227.290703 
L 86.994557 227.30228 
L 87.896382 227.337155 
L 88.640929 227.259958 
L 89.15028 227.238643 
L 90.130744 227.306896 
L 92.443025 227.320775 
L 97.970132 227.348672 
L 98.793318 227.325087 
L 99.695144 227.350064 
L 100.400732 227.411298 
L 101.184238 227.404285 
L 103.105486 227.388392 
L 104.712178 227.394925 
L 108.162202 227.396995 
L 109.259543 227.38401 
L 110.944874 227.410559 
L 112.277411 227.361693 
L 115.883991 227.407429 
L 117.491405 227.385369 
L 119.137777 227.424347 
L 120.156479 227.401381 
L 127.21236 227.43683 
L 128.819774 227.425733 
L 131.093095 227.436861 
L 144.734467 227.41892 
L 145.361416 227.414773 
L 147.125386 227.476747 
L 158.924148 227.466575 
L 161.628902 227.426271 
L 164.921647 227.464321 
L 166.018988 227.463977 
L 167.979196 227.3947 
L 169.782125 227.444016 
L 178.366781 227.367133 
L 179.385483 227.36269 
L 181.267051 227.215624 
L 184.168043 226.495469 
L 184.833951 225.920322 
L 185.265384 225.296655 
L 185.696817 224.283797 
L 187.225592 219.861249 
L 187.460788 219.800568 
L 187.656304 220.037675 
L 187.970139 220.899197 
L 189.263717 225.067669 
L 189.851707 226.013444 
L 190.478656 226.653117 
L 191.027687 226.882094 
L 192.399905 227.121692 
L 193.497246 227.199227 
L 194.241793 227.294361 
L 196.437197 227.30487 
L 198.043889 227.383787 
L 201.376314 227.100571 
L 202.865408 226.474891 
L 203.257882 226.633959 
L 204.433863 227.292529 
L 205.217368 227.32633 
L 210.038888 227.377068 
L 210.901033 227.397188 
L 215.330799 227.470041 
L 216.310542 227.480542 
L 222.269082 227.486979 
L 223.092269 227.513266 
L 224.621043 227.480314 
L 233.440895 227.539162 
L 234.224401 227.528974 
L 235.556938 227.480569 
L 237.948579 227.516295 
L 239.751508 227.550433 
L 244.220233 227.489375 
L 246.767709 227.486114 
L 247.94369 227.495971 
L 250.29565 227.501379 
L 252.765209 227.464354 
L 254.921654 227.530476 
L 256.88114 227.457398 
L 257.821924 227.478149 
L 259.468296 227.502189 
L 261.702659 227.4716 
L 262.996237 227.432128 
L 264.603651 227.138196 
L 265.269559 227.053114 
L 266.132425 227.253928 
L 267.073209 227.370167 
L 268.954778 227.411595 
L 269.699325 227.277892 
L 270.404913 227.215186 
L 272.834791 227.233167 
L 274.951556 227.149476 
L 278.048785 226.352835 
L 279.381322 226.788561 
L 280.322106 227.086777 
L 281.811922 227.136476 
L 284.124202 227.175716 
L 286.6724 227.414459 
L 288.240133 227.434153 
L 296.040561 227.494102 
L 297.059985 227.481017 
L 298.784275 227.520476 
L 303.331639 227.429707 
L 305.801198 227.53192 
L 312.072852 227.543858 
L 313.601626 227.551055 
L 314.973844 227.546089 
L 316.227742 227.512385 
L 317.678598 227.558568 
L 325.439347 227.54563 
L 327.987545 227.510936 
L 331.476527 227.560065 
L 335.238942 227.53444 
L 339.512151 227.510705 
L 343.863278 227.465322 
L 345.234774 227.438474 
L 346.684909 227.412106 
L 348.253364 227.246529 
L 349.311746 226.953136 
L 349.977654 226.570432 
L 350.840521 226.087687 
L 351.546109 225.965553 
L 352.094419 226.108519 
L 353.035203 226.57288 
L 354.093585 227.180932 
L 356.994577 227.46914 
L 359.111341 227.520129 
L 365.265398 227.479378 
L 365.265398 227.479378 
" clip-path="url(#p1d02191f80)" style="fill: none; stroke: #ff7f0e; stroke-width: 1.5; stroke-linecap: square"/>
   </g>
   <g id="line2d_8">
    <path d="M 40.610852 209.319189 
L 40.865643 209.183674 
L 41.120433 209.280304 
L 41.434021 209.371624 
L 42.178793 209.367787 
L 42.649176 209.28735 
L 43.001962 209.574003 
L 43.31555 209.652817 
L 43.923128 209.89203 
L 44.158319 209.643491 
L 44.39351 209.54292 
L 44.550304 209.707867 
L 44.824694 209.966116 
L 45.17748 209.928321 
L 45.432271 209.960026 
L 45.785058 209.778328 
L 46.216241 210.114379 
L 46.647425 210.014235 
L 47.078609 210.185243 
L 47.58819 210.008546 
L 47.84298 210.16281 
L 48.352561 210.498649 
L 49.45012 210.200125 
L 49.783307 210.139968 
L 50.136094 210.124236 
L 50.469281 210.000296 
L 51.018061 209.708356 
L 51.253252 209.684773 
L 52.252814 208.865865 
L 52.703597 208.117016 
L 53.134781 207.668324 
L 53.350373 207.086044 
L 53.997148 205.152899 
L 54.428332 203.415291 
L 54.898715 200.755556 
L 55.310299 196.773665 
L 55.878678 188.679974 
L 57.054633 169.258379 
L 57.093832 169.247242 
L 57.13303 169.322656 
L 57.250626 170.108369 
L 57.466218 173.653295 
L 57.956199 187.155541 
L 58.544177 200.945535 
L 58.936163 205.994732 
L 59.26935 207.878128 
L 59.955324 209.657654 
L 60.6021 210.417577 
L 62.679622 210.917711 
L 63.052008 210.979626 
L 63.659585 211.236403 
L 64.05157 211.275676 
L 64.698346 211.112259 
L 64.992335 211.285824 
L 65.364721 211.55542 
L 65.776305 211.545888 
L 66.011496 211.588807 
L 66.521077 211.411373 
L 66.834665 211.552574 
L 67.089456 211.598918 
L 67.579437 211.878709 
L 67.893026 211.820478 
L 68.206614 211.793969 
L 68.676996 211.796128 
L 68.912187 211.760853 
L 69.225775 211.90193 
L 70.048944 211.741557 
L 70.499727 211.949143 
L 70.832915 211.906402 
L 71.107305 211.843268 
L 72.106867 212.014816 
L 72.498852 211.851951 
L 73.028032 211.902241 
L 73.243624 211.941724 
L 73.61601 212.084607 
L 73.851201 211.890595 
L 74.066793 211.890548 
L 74.733168 212.040197 
L 74.929161 211.959699 
L 75.556337 211.52727 
L 76.634297 211.212232 
L 77.379069 210.212951 
L 78.084642 208.200511 
L 79.103804 204.664194 
L 79.123403 204.675581 
L 79.240998 204.906724 
L 79.691781 206.81411 
L 80.887336 211.128514 
L 81.494914 211.863882 
L 81.828101 211.962264 
L 82.220086 212.165066 
L 82.749266 212.163506 
L 83.062855 212.229809 
L 83.846825 212.236109 
L 84.650395 212.482478 
L 85.04238 212.308164 
L 85.551961 212.493273 
L 86.002744 212.319677 
L 87.805876 212.373755 
L 88.099865 212.375406 
L 88.354655 212.345069 
L 88.727041 212.508777 
L 89.530611 212.489437 
L 89.981394 212.626242 
L 90.236185 212.35508 
L 90.549773 212.145073 
L 90.980957 212.279945 
L 91.274946 212.307444 
L 91.568934 212.036366 
L 91.862923 211.841917 
L 92.137313 211.818884 
L 92.901684 211.466876 
L 93.097677 211.391316 
L 93.450464 210.724014 
L 93.901247 209.562856 
L 94.548022 206.551425 
L 94.822412 204.422224 
L 95.723978 195.912152 
L 95.959169 195.343636 
L 96.135563 195.273378 
L 96.155162 195.29816 
L 96.272757 195.690424 
L 96.507949 197.486182 
L 96.919533 202.721027 
L 97.350717 207.042342 
L 97.742702 209.194837 
L 98.350279 211.032116 
L 98.761864 211.686154 
L 99.38904 211.93292 
L 100.369003 212.217893 
L 100.917783 212.370494 
L 101.584158 212.28237 
L 101.956544 212.351922 
L 102.760113 212.588333 
L 103.073701 212.655066 
L 103.838073 212.586461 
L 104.151661 212.705068 
L 105.092426 212.559118 
L 105.347216 212.69253 
L 105.876396 212.495796 
L 106.346778 212.41204 
L 106.601569 212.375186 
L 107.36594 212.571634 
L 108.522296 212.212613 
L 108.796686 211.971399 
L 109.012278 211.797456 
L 109.619855 211.014699 
L 109.874646 210.894415 
L 110.521421 210.470575 
L 110.678215 210.646009 
L 111.697377 212.315126 
L 112.716539 212.664359 
L 113.069325 212.617605 
L 113.363314 212.811035 
L 113.598505 212.880513 
L 113.931693 212.777509 
L 114.578469 213.051173 
L 115.146847 212.931638 
L 115.460435 213.049457 
L 115.852421 213.000979 
L 116.224807 213.084991 
L 116.812784 213.192202 
L 117.126373 213.356404 
L 117.322365 213.142976 
L 117.596755 212.901312 
L 118.125935 213.013106 
L 118.341527 213.017022 
L 118.772711 213.092268 
L 119.223494 213.036706 
L 119.556681 212.920044 
L 119.929067 213.040724 
L 120.262255 213.043973 
L 120.517045 212.977831 
L 120.791435 212.669396 
L 121.105023 212.390703 
L 121.45781 212.229939 
L 121.751799 211.611663 
L 122.202582 210.818544 
L 122.868957 209.953812 
L 123.084548 210.059226 
L 123.398137 210.522967 
L 123.770523 211.194 
L 124.240905 212.272919 
L 124.926879 212.888834 
L 125.279666 212.944359 
L 125.573655 213.042751 
L 125.926441 213.204432 
L 126.690813 213.22386 
L 129.552305 213.019511 
L 129.826695 212.913033 
L 130.689062 213.027404 
L 131.179044 212.766619 
L 131.492632 212.824798 
L 132.061011 212.369458 
L 132.511794 211.647008 
L 133.060573 210.232651 
L 133.511356 208.261273 
L 134.099334 205.570527 
L 134.314926 205.369353 
L 134.550117 205.652505 
L 134.765709 206.377498 
L 136.098459 212.089701 
L 136.608039 212.631348 
L 138.156381 213.189988 
L 138.548366 213.214449 
L 138.940352 213.293713 
L 139.410734 213.360526 
L 140.194704 213.399043 
L 140.58669 213.401449 
L 140.919877 213.45285 
L 141.213866 213.394343 
L 141.723447 213.444623 
L 142.154631 213.431169 
L 142.468219 213.520975 
L 142.801406 213.345823 
L 143.193392 213.239745 
L 143.800969 212.992863 
L 144.075358 212.876546 
L 144.369347 212.734392 
L 144.937726 212.781115 
L 145.36891 213.038637 
L 145.604101 213.003754 
L 145.839292 213.05792 
L 146.348873 213.27573 
L 146.740858 213.444339 
L 147.466031 213.588264 
L 147.701222 213.560302 
L 148.073608 213.623902 
L 148.2892 213.64889 
L 148.583189 213.70849 
L 149.07317 213.612643 
L 149.425957 213.761747 
L 149.680747 213.797837 
L 150.366722 213.669931 
L 150.699909 213.65889 
L 151.346685 213.675117 
L 152.385446 213.588623 
L 152.581438 213.610371 
L 153.149817 213.872409 
L 153.404607 213.57323 
L 153.639798 213.477044 
L 155.129342 213.858206 
L 155.952511 213.753946 
L 156.305298 213.817313 
L 156.77568 213.694758 
L 157.246063 213.885242 
L 157.559651 213.946565 
L 158.10843 213.807149 
L 158.441618 213.892087 
L 159.71557 213.626499 
L 160.127154 213.764536 
L 160.479941 213.771486 
L 160.77393 213.633058 
L 161.067919 213.558747 
L 161.851889 213.552089 
L 162.341871 213.428718 
L 163.047444 213.025515 
L 163.674621 212.543661 
L 164.478191 212.550824 
L 165.262161 213.27701 
L 165.634547 213.348602 
L 166.08533 213.596871 
L 166.398918 213.597718 
L 166.986896 213.590143 
L 168.554837 213.845278 
L 169.730793 213.861697 
L 170.161977 213.888816 
L 170.514763 213.894952 
L 172.807877 213.538269 
L 173.101866 213.707957 
L 173.415454 213.752333 
L 174.121028 213.803163 
L 175.336182 213.895683 
L 175.669369 213.91334 
L 176.002557 213.898464 
L 176.884524 213.859185 
L 178.021281 213.76634 
L 178.334869 213.843527 
L 178.785652 213.639609 
L 179.040442 213.492722 
L 179.491226 213.218216 
L 179.804814 213.069962 
L 180.235998 212.399637 
L 181.000369 211.211804 
L 181.176762 211.30968 
L 181.49035 211.765623 
L 181.882336 212.187332 
L 182.195924 212.478739 
L 182.685905 213.304624 
L 182.921096 213.478038 
L 183.489475 213.534881 
L 184.234247 213.90693 
L 185.351405 213.870876 
L 185.821787 213.758667 
L 186.115776 213.733538 
L 186.350967 213.772774 
L 186.782151 213.890584 
L 187.409328 213.672531 
L 188.546085 213.088529 
L 188.977269 212.701859 
L 189.251658 212.529769 
L 189.428052 212.689642 
L 189.859235 213.118658 
L 190.27082 213.277279 
L 191.270382 213.743309 
L 193.347904 213.79443 
L 193.543897 213.751956 
L 193.896683 213.607556 
L 194.190672 213.606445 
L 194.563058 213.512729 
L 194.817849 213.411298 
L 195.30783 212.825657 
L 196.738576 210.271561 
L 196.934569 210.323853 
L 197.248157 210.733909 
L 198.50251 213.085793 
L 199.30608 213.46978 
L 200.521234 213.843399 
L 201.050414 213.789501 
L 201.364002 213.832542 
L 201.912782 214.136377 
L 202.245969 214.044478 
L 203.304329 213.784136 
L 203.55912 213.950748 
L 203.833509 214.023583 
L 204.421487 214.013739 
L 204.656678 213.912036 
L 204.931068 213.857515 
L 205.715039 213.999784 
L 205.969829 213.985143 
L 206.871395 213.596917 
L 207.341777 213.79883 
L 207.655366 213.745848 
L 208.125748 213.849812 
L 209.184108 213.829199 
L 209.3997 213.788338 
L 209.811284 213.744129 
L 210.360064 213.796367 
L 211.046038 213.616541 
L 211.398825 213.51041 
L 211.732012 213.599755 
L 212.026001 213.592763 
L 212.398387 213.603999 
L 212.672777 213.864517 
L 212.868769 213.923165 
L 213.319552 213.834963 
L 213.633141 213.911571 
L 213.92713 213.960524 
L 214.221118 213.965379 
L 215.122685 213.647071 
L 215.553868 213.779531 
L 217.161008 212.873215 
L 217.729386 212.178804 
L 218.199769 211.65928 
L 218.532956 211.589777 
L 218.748548 211.804297 
L 219.630515 212.944645 
L 219.904905 213.071415 
L 220.492882 213.340911 
L 221.316051 213.475153 
L 221.688437 213.614836 
L 222.41361 213.631116 
L 222.707599 213.639191 
L 223.177981 213.454895 
L 223.648364 213.172856 
L 224.138345 212.920419 
L 224.393136 212.610893 
L 224.706724 212.358438 
L 224.981114 212.425907 
L 225.177106 212.358345 
L 225.392698 212.304483 
L 226.059073 212.901786 
L 226.529455 213.333783 
L 227.058635 213.473579 
L 227.548617 213.785587 
L 227.823007 213.71568 
L 228.116996 213.698498 
L 228.685374 213.908933 
L 228.900966 213.835934 
L 229.430146 213.513888 
L 229.920128 213.428948 
L 230.586503 213.261725 
L 230.762896 213.207483 
L 231.213679 212.880615 
L 231.880054 212.731665 
L 232.095646 212.71777 
L 232.703223 213.199788 
L 232.977613 213.383522 
L 233.212804 213.486982 
L 233.58519 213.691844 
L 233.859579 213.838953 
L 234.11437 213.856975 
L 234.467157 213.788368 
L 234.780745 213.843522 
L 235.035535 213.885847 
L 235.368723 213.973745 
L 235.937101 213.779396 
L 236.348686 213.949412 
L 237.740233 212.820278 
L 238.132219 212.688151 
L 239.406171 213.505882 
L 239.758957 213.623925 
L 240.425332 213.942731 
L 240.699722 213.980651 
L 241.268101 214.008495 
L 241.56209 214.018891 
L 242.07167 214.140171 
L 243.874802 213.979852 
L 244.73717 213.840134 
L 245.129155 213.931658 
L 245.383946 213.979272 
L 245.677935 213.994714 
L 246.305111 214.175836 
L 247.324273 214.083293 
L 247.65746 214.133316 
L 248.323835 213.937163 
L 248.598225 213.977812 
L 248.951011 214.08163 
L 249.480192 213.88235 
L 250.754144 213.571853 
L 251.342121 213.839599 
L 251.812504 214.009994 
L 252.400482 213.959033 
L 252.635673 213.969538 
L 252.929662 213.969532 
L 253.125654 214.077556 
L 253.360845 214.157851 
L 253.752831 214.064093 
L 254.144816 214.128047 
L 254.693595 213.950302 
L 255.183577 213.659663 
L 255.477566 213.350092 
L 255.751955 213.148158 
L 256.653522 212.836364 
L 257.515889 213.542332 
L 257.927474 213.82549 
L 258.417455 213.881261 
L 259.123029 214.238436 
L 259.417018 214.222157 
L 259.730606 214.181352 
L 260.710569 214.353952 
L 261.043756 214.388143 
L 261.925723 214.191768 
L 262.396105 214.322753 
L 263.06248 214.267115 
L 264.003245 214.31799 
L 265.257598 214.408118 
L 265.571186 214.237836 
L 266.609947 214.254442 
L 267.295921 213.94844 
L 267.8643 213.782533 
L 268.707068 213.652695 
L 269.040255 213.952859 
L 269.353844 214.18191 
L 269.589035 214.329508 
L 269.863424 214.467892 
L 270.882586 214.420876 
L 271.333369 214.505691 
L 272.11734 214.417603 
L 272.470126 214.434951 
L 272.744516 214.262028 
L 273.195299 214.095799 
L 273.842075 214.092487 
L 274.332056 214.373635 
L 274.959233 214.425542 
L 275.29242 214.456267 
L 275.586409 214.500721 
L 276.35078 214.67082 
L 276.89956 214.545152 
L 278.134313 214.81188 
L 278.330306 214.710106 
L 278.702692 214.4309 
L 279.133875 214.516719 
L 279.859048 214.749886 
L 280.113839 214.657861 
L 280.407828 214.603916 
L 281.093802 214.82142 
L 281.485787 214.638391 
L 281.68178 214.763257 
L 281.995368 214.906652 
L 282.387353 214.848999 
L 282.759739 214.866088 
L 283.818099 214.681234 
L 284.05329 214.680134 
L 284.406077 214.444218 
L 284.700066 214.365958 
L 285.366441 214.538286 
L 286.366003 214.893735 
L 286.561996 214.860572 
L 286.855985 214.744266 
L 287.933944 214.853454 
L 288.463124 214.816765 
L 288.83551 214.89758 
L 289.462687 214.690476 
L 289.756676 214.671278 
L 290.736639 214.727497 
L 291.069826 214.645026 
L 291.363815 214.785006 
L 291.736201 214.886856 
L 292.128186 214.898413 
L 292.422175 214.937863 
L 293.206146 214.86449 
L 293.61773 214.903401 
L 294.029315 214.995799 
L 294.362502 215.010313 
L 295.068076 214.991713 
L 295.812848 215.036929 
L 297.008403 215.083725 
L 297.282792 215.065587 
L 297.909969 214.897011 
L 298.203958 214.95913 
L 298.458748 214.996021 
L 298.811535 214.969384 
L 299.223119 215.055391 
L 299.615105 215.010203 
L 299.889494 214.945955 
L 300.497072 215.033048 
L 300.849858 215.122343 
L 301.183046 215.210381 
L 301.849421 215.120928 
L 303.044976 214.866206 
L 303.260567 214.934153 
L 303.554556 215.052972 
L 304.162134 214.751714 
L 304.397325 214.704783 
L 304.78931 214.768898 
L 305.494883 214.666953 
L 305.788872 214.56617 
L 306.024063 214.550311 
L 306.494446 214.767129 
L 306.945229 214.731942 
L 307.415611 214.960601 
L 307.846795 214.902079 
L 308.219181 215.025491 
L 310.433898 214.873632 
L 310.727886 214.888507 
L 312.74661 214.919358 
L 314.412548 215.038202 
L 314.62814 215.024212 
L 315.314114 214.765618 
L 315.902092 214.733323 
L 316.235279 214.736432 
L 316.725261 214.954248 
L 317.27404 214.837492 
L 318.234404 215.089879 
L 320.155132 214.961147 
L 320.605915 215.001686 
L 320.939102 214.960137 
L 323.212617 215.019124 
L 323.467407 215.057367 
L 323.741797 215.12464 
L 324.388572 214.847533 
L 325.917315 214.928048 
L 326.270102 214.801436 
L 327.191267 215.11447 
L 328.42602 215.050199 
L 328.857204 215.153892 
L 329.680373 214.890933 
L 332.326274 215.267089 
L 332.855454 215.08775 
L 335.932538 215.02083 
L 336.206928 215.114153 
L 336.892902 215.061847 
L 337.618074 215.112129 
L 338.206052 215.093393 
L 338.460843 215.004903 
L 338.892027 214.885223 
L 339.578001 214.797403 
L 339.832791 214.749908 
L 340.969548 215.04025 
L 341.322335 215.011679 
L 341.890714 215.120571 
L 342.204302 215.116865 
L 342.51789 215.150672 
L 342.870677 215.072068 
L 343.458655 215.216071 
L 343.791842 215.163175 
L 344.752206 215.278263 
L 345.398982 215.15728 
L 346.614136 215.237106 
L 347.476503 215.205988 
L 347.868489 215.066555 
L 348.182077 215.048242 
L 348.574062 215.055278 
L 349.044444 215.040253 
L 349.397231 215.110028 
L 349.730419 215.059083 
L 350.142003 215.139218 
L 350.435992 215.119098 
L 350.847577 215.180206 
L 351.219963 215.153249 
L 352.08233 215.266967 
L 352.552712 215.243221 
L 352.787904 215.258441 
L 353.630672 215.090737 
L 354.101054 215.201368 
L 354.669433 215.178764 
L 355.943385 215.285086 
L 356.374569 215.379467 
L 356.903749 215.203181 
L 358.922473 215.207746 
L 359.451653 215.219479 
L 359.882837 215.439123 
L 360.098428 215.226499 
L 360.372818 215.066865 
L 360.647208 215.245458 
L 360.882399 215.278291 
L 361.627171 215.094358 
L 362.058355 215.027928 
L 362.548336 215.061229 
L 363.410704 215.103075 
L 363.939884 215.05378 
L 364.84145 215.363775 
L 365.037443 215.287293 
L 365.253034 214.902204 
L 365.253034 214.902204 
" clip-path="url(#p1d02191f80)" style="fill: none; stroke: #2ca02c; stroke-width: 1.5; stroke-linecap: square"/>
   </g>
   <g id="line2d_9">
    <path d="M 40.610852 160.369093 
L 41.649613 160.557279 
L 41.884804 160.441636 
L 42.198393 160.705754 
L 42.492381 160.813731 
L 43.511543 161.048482 
L 43.785933 160.97781 
L 44.746297 161.152757 
L 45.099083 161.201041 
L 45.549866 161.322988 
L 45.824256 161.405396 
L 46.25544 161.410878 
L 46.902215 161.572755 
L 47.255002 161.64065 
L 47.803782 161.715022 
L 48.11737 161.741651 
L 48.509355 161.701463 
L 49.9793 161.996983 
L 50.449682 161.847264 
L 50.822068 161.992706 
L 51.233652 162.040921 
L 51.527641 162.110937 
L 52.115619 161.998776 
L 52.390009 162.113308 
L 53.899152 162.245324 
L 54.251939 162.24214 
L 54.663523 162.170496 
L 54.937913 162.16849 
L 55.251501 162.206723 
L 55.682685 162.234664 
L 55.957075 162.343991 
L 56.251064 162.428892 
L 56.995836 162.26028 
L 57.387821 162.324664 
L 57.877802 162.415924 
L 58.583376 162.588782 
L 59.151754 162.483248 
L 60.915688 162.702042 
L 61.170479 162.741318 
L 61.425269 162.688582 
L 61.758456 162.647973 
L 63.52239 162.656492 
L 63.816379 162.845934 
L 64.639548 162.805898 
L 64.894338 162.807743 
L 65.168728 162.762217 
L 65.482316 162.852795 
L 66.011496 162.670709 
L 66.638673 162.965542 
L 66.932662 162.837547 
L 67.187452 162.813876 
L 69.206176 162.96275 
L 69.91175 162.888949 
L 70.362533 162.891033 
L 70.95051 162.966617 
L 71.401293 162.769609 
L 71.910874 162.91301 
L 72.204863 162.984176 
L 72.675246 162.972078 
L 73.126029 163.049349 
L 73.498415 163.018639 
L 73.831602 163.126866 
L 74.14519 163.120141 
L 74.537175 163.134734 
L 75.007558 162.96196 
L 75.673933 163.040626 
L 76.457903 163.037355 
L 79.966171 163.248043 
L 80.867737 163.290001 
L 81.220524 163.276371 
L 81.59291 163.160939 
L 82.102491 163.308673 
L 82.572873 163.291548 
L 82.92566 163.274449 
L 84.317207 163.22819 
L 84.630796 163.24618 
L 84.983582 163.324994 
L 86.767115 163.332448 
L 87.198299 163.281453 
L 87.472689 163.298495 
L 88.139064 163.356145 
L 88.981832 163.347383 
L 89.413016 163.366663 
L 89.981394 163.220933 
L 90.941758 163.2648 
L 91.235747 163.263001 
L 91.980519 163.31327 
L 92.294107 163.226878 
L 92.862486 163.365309 
L 93.136875 163.408924 
L 93.724853 163.328999 
L 96.135563 163.357382 
L 96.566746 163.394567 
L 96.978331 163.437071 
L 97.468312 163.441726 
L 99.487036 163.373528 
L 99.996617 163.42332 
L 100.427801 163.30038 
L 100.702191 163.422343 
L 101.054977 163.569037 
L 101.309768 163.469288 
L 101.642955 163.418549 
L 103.191297 163.417368 
L 103.544084 163.330543 
L 104.034065 163.455125 
L 104.622043 163.421083 
L 104.97483 163.517194 
L 106.542771 163.524031 
L 106.934756 163.522528 
L 107.228745 163.467118 
L 107.836322 163.606306 
L 108.14991 163.460772 
L 108.502697 163.436406 
L 109.188671 163.59011 
L 109.639454 163.480742 
L 110.697815 163.597421 
L 110.933006 163.592643 
L 111.305392 163.717456 
L 112.14816 163.605401 
L 112.579344 163.738642 
L 113.755299 163.843483 
L 114.166884 163.743671 
L 114.715663 163.773412 
L 115.06845 163.654706 
L 117.243968 163.878551 
L 117.537957 163.895478 
L 117.792748 163.86802 
L 118.125935 163.794946 
L 118.909905 163.89247 
L 119.341089 163.802779 
L 119.929067 163.924658 
L 120.37985 163.897164 
L 121.124622 163.846248 
L 121.653802 163.941024 
L 122.261379 163.927613 
L 122.574968 163.893278 
L 123.064949 163.870183 
L 123.554931 163.862871 
L 124.476096 163.969556 
L 124.90728 163.955863 
L 125.16207 163.902517 
L 125.514857 163.844479 
L 128.474346 163.870367 
L 129.062323 163.769282 
L 129.552305 164.006664 
L 130.355875 163.9038 
L 130.610665 164.009732 
L 130.826257 163.983769 
L 131.218242 163.905938 
L 131.825819 164.037187 
L 133.432959 163.942912 
L 134.334525 163.964782 
L 135.80447 164.020966 
L 136.157256 163.989768 
L 136.451245 164.007599 
L 136.804032 164.051151 
L 137.254815 164.020991 
L 138.881554 164.074445 
L 139.685124 163.942253 
L 140.390697 164.046138 
L 140.782682 164.01435 
L 141.566653 164.082835 
L 141.860642 164.081122 
L 142.135031 163.980542 
L 142.42902 163.981559 
L 142.821006 163.977263 
L 143.056197 164.068033 
L 143.369785 164.150841 
L 143.918564 164.081889 
L 145.34931 164.151085 
L 146.231277 164.04514 
L 146.897652 164.1344 
L 147.172042 164.072757 
L 147.877615 164.15716 
L 148.132406 164.166144 
L 148.485192 164.216919 
L 148.798781 164.161648 
L 149.07317 164.133203 
L 149.367159 164.049272 
L 149.915939 164.262679 
L 150.503916 164.122631 
L 151.346685 164.195145 
L 151.875865 164.17604 
L 152.699034 164.179724 
L 153.189015 163.981042 
L 153.796593 164.097747 
L 154.090581 164.144778 
L 154.423769 164.245152 
L 155.168541 164.151185 
L 156.089706 164.141008 
L 156.383695 164.205305 
L 156.79528 164.295867 
L 157.696846 164.193075 
L 158.245625 164.232799 
L 161.675496 164.217061 
L 164.262599 164.198415 
L 164.576187 164.236857 
L 165.634547 164.255351 
L 166.35972 164.283895 
L 166.575312 164.352475 
L 167.084892 164.216742 
L 167.398481 164.296634 
L 168.241249 164.196986 
L 170.86755 164.232541 
L 171.494726 164.154347 
L 171.886712 164.331129 
L 172.611884 164.257311 
L 173.709443 164.172264 
L 173.983833 164.169246 
L 174.513013 164.318788 
L 178.099678 164.068281 
L 178.374068 164.014486 
L 178.883648 164.14444 
L 179.37363 164.024956 
L 181.137564 163.817325 
L 181.549148 163.624091 
L 182.03913 163.680691 
L 182.352718 163.670928 
L 182.627108 163.523104 
L 183.175887 163.141941 
L 183.587471 163.013636 
L 183.979457 162.836773 
L 184.195049 162.751286 
L 184.743828 162.328331 
L 185.018218 162.339224 
L 185.312206 162.353893 
L 185.782589 162.034059 
L 186.076578 161.802404 
L 187.311331 161.754294 
L 187.703316 161.910147 
L 188.036504 161.898184 
L 188.271695 161.946927 
L 189.19286 162.540938 
L 190.251221 162.84382 
L 190.623607 163.082111 
L 191.368379 163.409124 
L 191.681967 163.552088 
L 191.917158 163.592916 
L 192.524735 163.923921 
L 193.210709 163.924514 
L 193.563496 163.983622 
L 193.896683 164.054153 
L 194.406264 164.143536 
L 195.405827 164.122415 
L 195.719415 164.196381 
L 196.287793 164.173 
L 196.836573 164.237985 
L 197.600944 164.291392 
L 198.110525 164.225907 
L 198.50251 164.252095 
L 198.7573 164.250068 
L 199.30608 164.327206 
L 199.619668 164.335578 
L 200.325241 164.331402 
L 200.756425 164.34164 
L 202.990741 164.408509 
L 203.225932 164.460091 
L 203.657116 164.381867 
L 203.990304 164.460694 
L 204.34309 164.405225 
L 204.695877 164.44446 
L 206.890994 164.429636 
L 207.478972 164.473072 
L 207.79256 164.458112 
L 208.811722 164.42855 
L 209.340902 164.468455 
L 209.65449 164.522153 
L 209.968079 164.488039 
L 210.399262 164.391352 
L 212.123997 164.432938 
L 212.437586 164.483019 
L 212.927567 164.444825 
L 213.339152 164.466259 
L 214.397512 164.579838 
L 214.946291 164.497146 
L 215.259879 164.378457 
L 215.730262 164.560346 
L 216.004651 164.507086 
L 216.279041 164.487414 
L 216.651427 164.501956 
L 217.533394 164.482543 
L 218.474158 164.479827 
L 218.905342 164.463832 
L 219.277728 164.463082 
L 219.74811 164.470346 
L 220.257691 164.592628 
L 221.139658 164.584905 
L 221.433647 164.474705 
L 221.845232 164.310138 
L 222.15882 164.552699 
L 222.41361 164.587691 
L 223.785559 164.581481 
L 224.157945 164.557827 
L 224.628327 164.578678 
L 226.000275 164.50609 
L 226.235466 164.472489 
L 226.725448 164.601637 
L 227.72501 164.532777 
L 229.371348 164.604108 
L 230.096521 164.499112 
L 231.115683 164.46733 
L 231.625263 164.476037 
L 233.232403 164.523297 
L 233.898778 164.579159 
L 235.564715 164.581035 
L 235.937101 164.659373 
L 238.680998 164.616649 
L 238.974987 164.6351 
L 239.347373 164.568513 
L 239.95495 164.690824 
L 240.542928 164.609781 
L 240.876115 164.630707 
L 241.326898 164.679652 
L 246.834291 164.613073 
L 247.343872 164.667877 
L 247.716258 164.557535 
L 249.342997 164.678408 
L 249.891776 164.561384 
L 250.656147 164.577254 
L 250.989335 164.533336 
L 251.773305 164.665686 
L 252.16529 164.597405 
L 256.222338 164.705547 
L 256.633922 164.621724 
L 257.633485 164.655689 
L 258.241062 164.598067 
L 258.574249 164.598917 
L 259.240624 164.677987 
L 259.711006 164.657996 
L 260.044194 164.665786 
L 260.357782 164.674387 
L 260.730168 164.640124 
L 261.259348 164.612234 
L 264.904811 164.57974 
L 265.708381 164.555545 
L 266.237561 164.757902 
L 266.53155 164.59779 
L 266.864737 164.487535 
L 267.374318 164.558349 
L 268.001494 164.541338 
L 268.589472 164.567676 
L 268.942259 164.5568 
L 269.255847 164.60542 
L 269.491038 164.54269 
L 269.902623 164.418821 
L 270.588597 164.476432 
L 274.253659 164.354397 
L 274.76324 164.367324 
L 275.54721 164.203509 
L 276.213585 164.067828 
L 276.62517 163.953768 
L 277.134751 163.971146 
L 277.467938 163.943706 
L 277.722729 163.969488 
L 278.565497 163.928656 
L 280.662618 164.07502 
L 280.917408 164.091784 
L 281.387791 164.305244 
L 281.858173 164.317934 
L 282.720541 164.425723 
L 283.014529 164.420624 
L 283.484912 164.361331 
L 284.131687 164.36505 
L 285.366441 164.527599 
L 286.130812 164.608654 
L 286.97358 164.584183 
L 288.502323 164.595235 
L 288.913907 164.643438 
L 289.893871 164.640571 
L 290.344654 164.563738 
L 291.344216 164.635334 
L 291.716602 164.605724 
L 292.108587 164.654372 
L 292.57897 164.673701 
L 293.10815 164.716299 
L 293.656929 164.693664 
L 294.597694 164.685234 
L 295.166072 164.658246 
L 295.401263 164.708213 
L 295.734451 164.750541 
L 296.498822 164.740941 
L 297.34159 164.811346 
L 300.085487 164.723703 
L 301.06545 164.752073 
L 302.163009 164.710461 
L 302.65299 164.727401 
L 303.064575 164.743793 
L 305.808472 164.76947 
L 306.12206 164.778262 
L 306.435648 164.79722 
L 306.945229 164.721793 
L 307.337214 164.741503 
L 308.728762 164.707868 
L 309.061949 164.761344 
L 309.453934 164.754933 
L 309.767523 164.782496 
L 310.433898 164.750662 
L 311.747048 164.707681 
L 312.139033 164.792523 
L 312.472221 164.852827 
L 313.197394 164.76349 
L 314.784934 164.702394 
L 315.216118 164.728543 
L 316.960452 164.785753 
L 318.469595 164.705161 
L 319.155569 164.799239 
L 320.821507 164.728503 
L 321.566279 164.668806 
L 321.997462 164.770455 
L 322.703036 164.826351 
L 323.369411 164.691377 
L 324.97655 164.758423 
L 325.50573 164.74434 
L 326.603289 164.81033 
L 327.11287 164.739127 
L 327.700848 164.694785 
L 329.268789 164.810272 
L 329.641175 164.795354 
L 330.209553 164.712305 
L 330.875928 164.791414 
L 332.659461 164.794065 
L 333.051446 164.795668 
L 333.678623 164.737081 
L 333.972612 164.621297 
L 334.81538 164.797372 
L 335.638549 164.692452 
L 335.932538 164.762499 
L 336.246126 164.754275 
L 336.67731 164.748344 
L 337.088894 164.7606 
L 341.890714 164.704996 
L 342.302298 164.705414 
L 342.77268 164.673554 
L 343.380258 164.623243 
L 343.772243 164.614011 
L 344.223026 164.534054 
L 344.732607 164.51377 
L 345.085393 164.565489 
L 346.339746 164.390242 
L 346.888526 164.359176 
L 347.378507 164.289644 
L 347.750893 164.212339 
L 348.88765 164.073574 
L 349.318834 163.926781 
L 350.573187 163.966524 
L 350.847577 163.876127 
L 351.063168 163.896761 
L 351.513951 164.06606 
L 351.984334 163.96236 
L 352.376319 164.018571 
L 352.631109 164.069563 
L 353.14069 164.186456 
L 353.434679 164.113254 
L 353.650271 164.158865 
L 354.19905 164.324877 
L 354.610635 164.237118 
L 355.00262 164.324689 
L 355.610197 164.379223 
L 355.923786 164.480529 
L 356.178576 164.480598 
L 356.688157 164.457823 
L 357.040943 164.602437 
L 357.883712 164.630053 
L 358.608884 164.651127 
L 359.373256 164.626865 
L 360.216024 164.767236 
L 361.058792 164.772044 
L 362.861924 164.673256 
L 363.195112 164.717635 
L 363.645895 164.807835 
L 364.351468 164.75455 
L 364.763053 164.696582 
L 365.057042 164.741436 
L 365.253034 164.911845 
L 365.253034 164.911845 
" clip-path="url(#p1d02191f80)" style="fill: none; stroke: #d62728; stroke-width: 1.5; stroke-linecap: square"/>
   </g>
   <g id="line2d_10">
    <path d="M 40.67945 19.296 
L 42.404185 35.53303 
L 43.815332 46.022205 
L 45.226479 55.050784 
L 46.324037 60.83772 
L 47.735184 66.833786 
L 50.087096 76.186828 
L 51.184654 79.606327 
L 51.811831 80.90841 
L 52.125419 81.224882 
L 52.439007 81.229294 
L 52.752595 80.84549 
L 53.066184 79.994769 
L 53.536566 77.699126 
L 54.006948 74.062562 
L 54.634125 67.135961 
L 56.515654 43.203825 
L 56.829242 41.953719 
L 56.986036 41.904818 
L 57.14283 42.255521 
L 57.456418 44.148631 
L 57.926801 49.736151 
L 58.553977 61.019757 
L 59.965124 87.997089 
L 60.5923 95.836129 
L 61.219477 100.713558 
L 61.689859 102.865686 
L 62.160241 104.13674 
L 62.630624 104.877139 
L 63.414594 105.611604 
L 64.825741 106.799978 
L 65.766506 107.97091 
L 67.961623 110.976867 
L 69.059182 112.049939 
L 70.940711 113.684796 
L 73.919799 116.683422 
L 74.546975 116.858044 
L 75.017357 116.827572 
L 75.48774 116.603221 
L 75.958122 116.143808 
L 76.428504 115.413423 
L 77.055681 113.986764 
L 78.623622 109.9135 
L 79.094004 109.305588 
L 79.407592 109.177808 
L 79.72118 109.295053 
L 80.034769 109.676416 
L 80.505151 110.719697 
L 82.543474 116.334871 
L 83.170651 117.205685 
L 85.05218 119.378605 
L 85.992944 121.119512 
L 87.404091 123.68132 
L 88.658444 125.472765 
L 89.756003 126.642123 
L 90.226385 126.920798 
L 90.696767 126.960343 
L 91.16715 126.701803 
L 91.637532 126.089584 
L 92.107914 125.046413 
L 92.578297 123.467458 
L 93.205473 120.350529 
L 93.832649 115.879318 
L 94.773414 107.104794 
L 95.714178 98.88096 
L 96.184561 96.360574 
L 96.498149 95.555368 
L 96.654943 95.448854 
L 96.811737 95.552277 
L 97.125325 96.408622 
L 97.438914 98.122428 
L 97.909296 102.085756 
L 99.790825 120.42877 
L 100.418001 123.697914 
L 100.888384 125.135333 
L 101.358766 125.922436 
L 101.829148 126.262086 
L 102.299531 126.317083 
L 103.240295 126.08286 
L 104.651442 125.791022 
L 105.435413 125.838585 
L 106.532971 126.213714 
L 107.316942 126.396592 
L 107.787324 126.301916 
L 108.257706 125.978687 
L 108.884883 125.220309 
L 110.452824 123.129742 
L 110.923206 122.86405 
L 111.236794 122.869599 
L 111.550382 123.051111 
L 112.020765 123.65061 
L 112.647941 124.893475 
L 114.215882 128.24251 
L 115.156647 129.615285 
L 116.411 131.019664 
L 117.19497 131.638914 
L 118.762911 132.458708 
L 119.390087 132.600723 
L 119.86047 132.501301 
L 120.330852 132.171193 
L 120.958028 131.357718 
L 121.741999 129.798135 
L 122.996352 127.219453 
L 123.466734 126.678555 
L 123.780322 126.570293 
L 124.09391 126.691845 
L 124.407499 127.034054 
L 124.877881 127.895802 
L 125.661851 129.91645 
L 126.916204 133.12411 
L 127.856969 134.943168 
L 128.640939 136.012455 
L 129.268116 136.551897 
L 129.738498 136.725746 
L 130.20888 136.672041 
L 130.679263 136.354728 
L 131.149645 135.743858 
L 131.620027 134.788023 
L 132.247204 132.847859 
L 132.87438 130.055568 
L 134.755909 120.445351 
L 135.069497 119.674417 
L 135.383086 119.3876 
L 135.53988 119.447449 
L 135.853468 119.992205 
L 136.167056 121.087631 
L 136.637438 123.57664 
L 138.048585 131.941227 
L 138.518968 133.639993 
L 138.98935 134.665521 
L 139.459732 135.160542 
L 139.930114 135.286792 
L 140.400497 135.173148 
L 141.341261 134.622066 
L 142.43882 133.987323 
L 143.065996 133.866995 
L 143.536379 133.993322 
L 144.163555 134.462951 
L 146.201878 136.32833 
L 148.083408 137.37011 
L 149.024172 137.610279 
L 150.121731 137.958683 
L 150.905701 138.416756 
L 152.944025 139.862624 
L 153.571201 139.980738 
L 154.355172 139.881404 
L 157.020671 139.257254 
L 157.961436 139.298197 
L 159.215789 139.68465 
L 160.313347 139.964313 
L 161.097318 139.925404 
L 161.5677 139.7175 
L 162.194876 139.137702 
L 162.822053 138.230903 
L 164.860376 134.926713 
L 165.330758 134.688269 
L 165.644347 134.748822 
L 165.957935 134.995828 
L 166.428317 135.667776 
L 168.937023 139.982908 
L 169.564199 140.462694 
L 170.191376 140.617282 
L 170.975346 140.52744 
L 172.229699 140.066604 
L 173.170463 139.766888 
L 173.79764 139.786492 
L 174.424816 140.030058 
L 175.522375 140.54364 
L 176.149551 140.547785 
L 176.776728 140.308175 
L 178.187875 139.444499 
L 178.971845 138.740668 
L 179.599021 137.888095 
L 180.539786 136.169365 
L 181.480551 134.485151 
L 181.950933 133.928471 
L 182.264521 133.747068 
L 182.578109 133.769335 
L 182.891698 134.01701 
L 183.36208 134.784458 
L 184.14605 136.743637 
L 185.086815 138.966047 
L 185.557197 139.661367 
L 186.02758 140.017508 
L 186.497962 140.04309 
L 186.968344 139.75207 
L 187.595521 138.946257 
L 189.320256 136.331786 
L 189.790638 136.080154 
L 190.104226 136.115196 
L 190.574608 136.454844 
L 191.201785 137.317444 
L 192.769726 139.774135 
L 193.240108 140.056226 
L 193.553696 140.023539 
L 193.867284 139.801219 
L 194.337667 139.11287 
L 194.808049 138.008676 
L 195.435225 135.952558 
L 197.473549 128.577408 
L 197.943931 127.894007 
L 198.257519 127.868027 
L 198.571107 128.21115 
L 198.884696 128.925651 
L 199.355078 130.593933 
L 200.923019 136.894619 
L 201.550195 138.284571 
L 202.020578 138.85918 
L 202.49096 139.151 
L 203.118136 139.250756 
L 204.529283 139.03636 
L 205.626842 139.011892 
L 206.724401 139.015846 
L 207.978753 138.735009 
L 209.546694 138.289174 
L 210.487459 138.053406 
L 211.271429 137.594625 
L 213.152959 136.20208 
L 215.348076 135.297744 
L 216.132047 134.579338 
L 216.916017 133.503094 
L 218.013576 131.487849 
L 218.95434 129.792944 
L 219.424723 129.297841 
L 219.738311 129.192228 
L 220.051899 129.282354 
L 220.522281 129.761158 
L 221.306252 131.098874 
L 221.933428 132.072161 
L 222.403811 132.491152 
L 222.874193 132.586445 
L 223.344575 132.393169 
L 223.971752 131.847574 
L 225.539693 130.331918 
L 226.166869 130.049714 
L 226.637251 130.106207 
L 227.107633 130.420557 
L 227.891604 131.347822 
L 228.832369 132.423574 
L 229.459545 132.772301 
L 230.086721 132.803564 
L 230.713898 132.606201 
L 231.497868 132.086592 
L 232.752221 131.181391 
L 233.222603 131.103525 
L 233.692986 131.299786 
L 234.320162 131.946658 
L 235.417721 133.155496 
L 235.888103 133.378472 
L 236.358485 133.35031 
L 236.828868 133.059902 
L 237.456044 132.320564 
L 239.023985 130.18415 
L 239.494367 129.963462 
L 239.807956 130.026417 
L 240.278338 130.459178 
L 240.905514 131.496859 
L 242.159867 133.707944 
L 242.787043 134.367762 
L 243.41422 134.705506 
L 244.19819 134.833399 
L 245.138955 134.740005 
L 246.550102 134.305461 
L 248.902013 133.362437 
L 250.156366 132.981839 
L 251.097131 132.906491 
L 251.567513 133.050734 
L 252.194689 133.499105 
L 253.76263 134.868004 
L 254.233013 135.022748 
L 254.703395 134.943175 
L 255.173777 134.594594 
L 255.800954 133.785033 
L 257.055306 132.070149 
L 257.525689 131.788838 
L 257.839277 131.805667 
L 258.152865 132.010632 
L 258.623247 132.657913 
L 259.250424 134.016991 
L 260.504777 136.929713 
L 261.131953 137.896207 
L 261.759129 138.500414 
L 262.699894 139.060192 
L 263.954247 139.807759 
L 265.678982 140.990355 
L 266.306158 141.103049 
L 266.776541 140.983994 
L 267.403717 140.574102 
L 269.285246 139.025088 
L 269.598834 139.084756 
L 270.069217 139.481179 
L 270.696393 140.444462 
L 271.950746 142.463744 
L 272.577922 143.016827 
L 273.205099 143.212873 
L 273.989069 143.148672 
L 274.77304 143.126544 
L 275.243422 143.31584 
L 275.870598 143.848125 
L 278.849686 146.890434 
L 279.633657 147.224033 
L 282.299156 147.876844 
L 282.926333 147.633651 
L 285.591832 146.097497 
L 286.219009 146.100141 
L 286.846185 146.389501 
L 287.473362 146.948855 
L 288.884509 148.369763 
L 289.511685 148.693616 
L 290.295655 148.829615 
L 292.177185 148.901865 
L 293.90192 149.369724 
L 295.313067 149.564268 
L 296.567419 150.028449 
L 301.114448 151.91905 
L 301.898419 151.887051 
L 302.682389 151.657254 
L 307.072624 149.94321 
L 307.6998 150.05632 
L 310.051712 150.855022 
L 313.344388 151.217825 
L 315.225917 151.956155 
L 318.205005 152.515295 
L 319.616152 152.969893 
L 321.027299 153.279171 
L 322.752034 153.875239 
L 323.849593 153.934015 
L 324.633563 153.797202 
L 326.671886 153.118677 
L 327.455857 153.235318 
L 328.71021 153.71543 
L 329.337386 153.852386 
L 329.964562 153.771557 
L 331.375709 153.246844 
L 334.041209 152.265175 
L 334.82518 152.215343 
L 335.452356 152.426455 
L 336.236326 153.006731 
L 337.490679 153.983158 
L 338.27465 154.258425 
L 339.215414 154.315685 
L 341.410532 154.205781 
L 342.037708 154.534581 
L 344.232825 156.003836 
L 344.860002 156.00954 
L 345.487178 155.761824 
L 347.055119 154.946498 
L 349.877413 154.45172 
L 350.504589 154.584847 
L 351.28856 155.03917 
L 352.542913 155.851068 
L 353.170089 155.948309 
L 353.95406 155.764351 
L 355.051618 155.535904 
L 355.835589 155.635929 
L 357.40353 155.924718 
L 358.501088 155.935142 
L 361.793765 155.620291 
L 363.204911 155.028992 
L 363.832088 155.085929 
L 365.243235 155.588908 
L 365.243235 155.588908 
" clip-path="url(#p1d02191f80)" style="fill: none; stroke: #9467bd; stroke-width: 1.5; stroke-linecap: square"/>
   </g>
   <g id="patch_3">
    <path d="M 24.378125 273.312 
L 24.378125 7.2 
" style="fill: none; stroke: #000000; stroke-width: 0.8; stroke-linejoin: miter; stroke-linecap: square"/>
   </g>
   <g id="patch_4">
    <path d="M 381.498125 273.312 
L 381.498125 7.2 
" style="fill: none; stroke: #000000; stroke-width: 0.8; stroke-linejoin: miter; stroke-linecap: square"/>
   </g>
   <g id="patch_5">
    <path d="M 24.378125 273.312 
L 381.498125 273.312 
" style="fill: none; stroke: #000000; stroke-width: 0.8; stroke-linejoin: miter; stroke-linecap: square"/>
   </g>
   <g id="patch_6">
    <path d="M 24.378125 7.2 
L 381.498125 7.2 
" style="fill: none; stroke: #000000; stroke-width: 0.8; stroke-linejoin: miter; stroke-linecap: square"/>
   </g>
   <g id="legend_1">
    <g id="patch_7">
     <path d="M 297.327812 88.590625 
L 374.498125 88.590625 
Q 376.498125 88.590625 376.498125 86.590625 
L 376.498125 14.2 
Q 376.498125 12.2 374.498125 12.2 
L 297.327812 12.2 
Q 295.327812 12.2 295.327812 14.2 
L 295.327812 86.590625 
Q 295.327812 88.590625 297.327812 88.590625 
z
" style="fill: #ffffff; opacity: 0.8; stroke: #cccccc; stroke-linejoin: miter"/>
    </g>
    <g id="line2d_11">
     <path d="M 299.327812 20.298437 
L 309.327812 20.298437 
L 319.327812 20.298437 
" style="fill: none; stroke: #1f77b4; stroke-width: 1.5; stroke-linecap: square"/>
    </g>
    <g id="text_8">
     <!-- ZIF-8-MK -->
     <g transform="translate(327.327812 23.798437)scale(0.1 -0.1)">
      <defs>
       <path id="DejaVuSans-5a" d="M 359 4666 
L 4025 4666 
L 4025 4184 
L 1075 531 
L 4097 531 
L 4097 0 
L 288 0 
L 288 481 
L 3238 4134 
L 359 4134 
L 359 4666 
z
" transform="scale(0.015625)"/>
       <path id="DejaVuSans-46" d="M 628 4666 
L 3309 4666 
L 3309 4134 
L 1259 4134 
L 1259 2759 
L 3109 2759 
L 3109 2228 
L 1259 2228 
L 1259 0 
L 628 0 
L 628 4666 
z
" transform="scale(0.015625)"/>
       <path id="DejaVuSans-2d" d="M 313 2009 
L 1997 2009 
L 1997 1497 
L 313 1497 
L 313 2009 
z
" transform="scale(0.015625)"/>
       <path id="DejaVuSans-38" d="M 2034 2216 
Q 1584 2216 1326 1975 
Q 1069 1734 1069 1313 
Q 1069 891 1326 650 
Q 1584 409 2034 409 
Q 2484 409 2743 651 
Q 3003 894 3003 1313 
Q 3003 1734 2745 1975 
Q 2488 2216 2034 2216 
z
M 1403 2484 
Q 997 2584 770 2862 
Q 544 3141 544 3541 
Q 544 4100 942 4425 
Q 1341 4750 2034 4750 
Q 2731 4750 3128 4425 
Q 3525 4100 3525 3541 
Q 3525 3141 3298 2862 
Q 3072 2584 2669 2484 
Q 3125 2378 3379 2068 
Q 3634 1759 3634 1313 
Q 3634 634 3220 271 
Q 2806 -91 2034 -91 
Q 1263 -91 848 271 
Q 434 634 434 1313 
Q 434 1759 690 2068 
Q 947 2378 1403 2484 
z
M 1172 3481 
Q 1172 3119 1398 2916 
Q 1625 2713 2034 2713 
Q 2441 2713 2670 2916 
Q 2900 3119 2900 3481 
Q 2900 3844 2670 4047 
Q 2441 4250 2034 4250 
Q 1625 4250 1398 4047 
Q 1172 3844 1172 3481 
z
" transform="scale(0.015625)"/>
       <path id="DejaVuSans-4d" d="M 628 4666 
L 1569 4666 
L 2759 1491 
L 3956 4666 
L 4897 4666 
L 4897 0 
L 4281 0 
L 4281 4097 
L 3078 897 
L 2444 897 
L 1241 4097 
L 1241 0 
L 628 0 
L 628 4666 
z
" transform="scale(0.015625)"/>
       <path id="DejaVuSans-4b" d="M 628 4666 
L 1259 4666 
L 1259 2694 
L 3353 4666 
L 4166 4666 
L 1850 2491 
L 4331 0 
L 3500 0 
L 1259 2247 
L 1259 0 
L 628 0 
L 628 4666 
z
" transform="scale(0.015625)"/>
      </defs>
      <use xlink:href="#DejaVuSans-5a"/>
      <use xlink:href="#DejaVuSans-49" x="68.505859"/>
      <use xlink:href="#DejaVuSans-46" x="97.998047"/>
      <use xlink:href="#DejaVuSans-2d" x="155.517578"/>
      <use xlink:href="#DejaVuSans-38" x="191.601562"/>
      <use xlink:href="#DejaVuSans-2d" x="255.224609"/>
      <use xlink:href="#DejaVuSans-4d" x="291.308594"/>
      <use xlink:href="#DejaVuSans-4b" x="377.587891"/>
     </g>
    </g>
    <g id="line2d_12">
     <path d="M 299.327812 34.976562 
L 309.327812 34.976562 
L 319.327812 34.976562 
" style="fill: none; stroke: #ff7f0e; stroke-width: 1.5; stroke-linecap: square"/>
    </g>
    <g id="text_9">
     <!-- TiO2-P25 -->
     <g transform="translate(327.327812 38.476562)scale(0.1 -0.1)">
      <defs>
       <path id="DejaVuSans-54" d="M -19 4666 
L 3928 4666 
L 3928 4134 
L 2272 4134 
L 2272 0 
L 1638 0 
L 1638 4134 
L -19 4134 
L -19 4666 
z
" transform="scale(0.015625)"/>
       <path id="DejaVuSans-4f" d="M 2522 4238 
Q 1834 4238 1429 3725 
Q 1025 3213 1025 2328 
Q 1025 1447 1429 934 
Q 1834 422 2522 422 
Q 3209 422 3611 934 
Q 4013 1447 4013 2328 
Q 4013 3213 3611 3725 
Q 3209 4238 2522 4238 
z
M 2522 4750 
Q 3503 4750 4090 4092 
Q 4678 3434 4678 2328 
Q 4678 1225 4090 567 
Q 3503 -91 2522 -91 
Q 1538 -91 948 565 
Q 359 1222 359 2328 
Q 359 3434 948 4092 
Q 1538 4750 2522 4750 
z
" transform="scale(0.015625)"/>
       <path id="DejaVuSans-50" d="M 1259 4147 
L 1259 2394 
L 2053 2394 
Q 2494 2394 2734 2622 
Q 2975 2850 2975 3272 
Q 2975 3691 2734 3919 
Q 2494 4147 2053 4147 
L 1259 4147 
z
M 628 4666 
L 2053 4666 
Q 2838 4666 3239 4311 
Q 3641 3956 3641 3272 
Q 3641 2581 3239 2228 
Q 2838 1875 2053 1875 
L 1259 1875 
L 1259 0 
L 628 0 
L 628 4666 
z
" transform="scale(0.015625)"/>
      </defs>
      <use xlink:href="#DejaVuSans-54"/>
      <use xlink:href="#DejaVuSans-69" x="57.958984"/>
      <use xlink:href="#DejaVuSans-4f" x="85.742188"/>
      <use xlink:href="#DejaVuSans-32" x="164.453125"/>
      <use xlink:href="#DejaVuSans-2d" x="228.076172"/>
      <use xlink:href="#DejaVuSans-50" x="264.160156"/>
      <use xlink:href="#DejaVuSans-32" x="324.462891"/>
      <use xlink:href="#DejaVuSans-35" x="388.085938"/>
     </g>
    </g>
    <g id="line2d_13">
     <path d="M 299.327812 49.654687 
L 309.327812 49.654687 
L 319.327812 49.654687 
" style="fill: none; stroke: #2ca02c; stroke-width: 1.5; stroke-linecap: square"/>
    </g>
    <g id="text_10">
     <!-- CAT-1 -->
     <g transform="translate(327.327812 53.154687)scale(0.1 -0.1)">
      <defs>
       <path id="DejaVuSans-43" d="M 4122 4306 
L 4122 3641 
Q 3803 3938 3442 4084 
Q 3081 4231 2675 4231 
Q 1875 4231 1450 3742 
Q 1025 3253 1025 2328 
Q 1025 1406 1450 917 
Q 1875 428 2675 428 
Q 3081 428 3442 575 
Q 3803 722 4122 1019 
L 4122 359 
Q 3791 134 3420 21 
Q 3050 -91 2638 -91 
Q 1578 -91 968 557 
Q 359 1206 359 2328 
Q 359 3453 968 4101 
Q 1578 4750 2638 4750 
Q 3056 4750 3426 4639 
Q 3797 4528 4122 4306 
z
" transform="scale(0.015625)"/>
       <path id="DejaVuSans-41" d="M 2188 4044 
L 1331 1722 
L 3047 1722 
L 2188 4044 
z
M 1831 4666 
L 2547 4666 
L 4325 0 
L 3669 0 
L 3244 1197 
L 1141 1197 
L 716 0 
L 50 0 
L 1831 4666 
z
" transform="scale(0.015625)"/>
      </defs>
      <use xlink:href="#DejaVuSans-43"/>
      <use xlink:href="#DejaVuSans-41" x="69.824219"/>
      <use xlink:href="#DejaVuSans-54" x="130.482422"/>
      <use xlink:href="#DejaVuSans-2d" x="182.441406"/>
      <use xlink:href="#DejaVuSans-31" x="218.525391"/>
     </g>
    </g>
    <g id="line2d_14">
     <path d="M 299.327812 64.332812 
L 309.327812 64.332812 
L 319.327812 64.332812 
" style="fill: none; stroke: #d62728; stroke-width: 1.5; stroke-linecap: square"/>
    </g>
    <g id="text_11">
     <!-- CAT-2 -->
     <g transform="translate(327.327812 67.832812)scale(0.1 -0.1)">
      <use xlink:href="#DejaVuSans-43"/>
      <use xlink:href="#DejaVuSans-41" x="69.824219"/>
      <use xlink:href="#DejaVuSans-54" x="130.482422"/>
      <use xlink:href="#DejaVuSans-2d" x="182.441406"/>
      <use xlink:href="#DejaVuSans-32" x="218.525391"/>
     </g>
    </g>
    <g id="line2d_15">
     <path d="M 299.327812 79.010937 
L 309.327812 79.010937 
L 319.327812 79.010937 
" style="fill: none; stroke: #9467bd; stroke-width: 1.5; stroke-linecap: square"/>
    </g>
    <g id="text_12">
     <!-- CAT-3 -->
     <g transform="translate(327.327812 82.510937)scale(0.1 -0.1)">
      <use xlink:href="#DejaVuSans-43"/>
      <use xlink:href="#DejaVuSans-41" x="69.824219"/>
      <use xlink:href="#DejaVuSans-54" x="130.482422"/>
      <use xlink:href="#DejaVuSans-2d" x="182.441406"/>
      <use xlink:href="#DejaVuSans-33" x="218.525391"/>
     </g>
    </g>
   </g>
  </g>
 </g>
 <defs>
  <clipPath id="p1d02191f80">
   <rect x="24.378125" y="7.2" width="357.12" height="266.112"/>
  </clipPath>
 </defs>
</svg>
