<?xml version="1.0" encoding="utf-8" standalone="no"?>
<!DOCTYPE svg PUBLIC "-//W3C//DTD SVG 1.1//EN"
  "http://www.w3.org/Graphics/SVG/1.1/DTD/svg11.dtd">
<svg xmlns:xlink="http://www.w3.org/1999/xlink" width="460.8pt" height="345.6pt" viewBox="0 0 460.8 345.6" xmlns="http://www.w3.org/2000/svg" version="1.1">
 <metadata>
  <rdf:RDF xmlns:dc="http://purl.org/dc/elements/1.1/" xmlns:cc="http://creativecommons.org/ns#" xmlns:rdf="http://www.w3.org/1999/02/22-rdf-syntax-ns#">
   <cc:Work>
    <dc:type rdf:resource="http://purl.org/dc/dcmitype/StillImage"/>
    <dc:date>2022-08-04T17:49:19.403890</dc:date>
    <dc:format>image/svg+xml</dc:format>
    <dc:creator>
     <cc:Agent>
      <dc:title>Matplotlib v3.5.2, https://matplotlib.org/</dc:title>
     </cc:Agent>
    </dc:creator>
   </cc:Work>
  </rdf:RDF>
 </metadata>
 <defs>
  <style type="text/css">*{stroke-linejoin: round; stroke-linecap: butt}</style>
 </defs>
 <g id="figure_1">
  <g id="patch_1">
   <path d="M 0 345.6 
L 460.8 345.6 
L 460.8 0 
L 0 0 
z
" style="fill: #ffffff"/>
  </g>
  <g id="axes_1">
   <g id="patch_2">
    <path d="M 57.6 307.584 
L 414.72 307.584 
L 414.72 41.472 
L 57.6 41.472 
z
" style="fill: #ffffff"/>
   </g>
   <g id="matplotlib.axis_1">
    <g id="xtick_1">
     <g id="line2d_1">
      <defs>
       <path id="m89384714b4" d="M 0 0 
L 0 3.5 
" style="stroke: #000000; stroke-width: 0.8"/>
      </defs>
      <g>
       <use xlink:href="#m89384714b4" x="109.903157" y="307.584" style="stroke: #000000; stroke-width: 0.8"/>
      </g>
     </g>
     <g id="text_1">
      <!-- 10 -->
      <g transform="translate(103.540657 322.182437)scale(0.1 -0.1)">
       <defs>
        <path id="DejaVuSans-31" d="M 794 531 
L 1825 531 
L 1825 4091 
L 703 3866 
L 703 4441 
L 1819 4666 
L 2450 4666 
L 2450 531 
L 3481 531 
L 3481 0 
L 794 0 
L 794 531 
z
" transform="scale(0.015625)"/>
        <path id="DejaVuSans-30" d="M 2034 4250 
Q 1547 4250 1301 3770 
Q 1056 3291 1056 2328 
Q 1056 1369 1301 889 
Q 1547 409 2034 409 
Q 2525 409 2770 889 
Q 3016 1369 3016 2328 
Q 3016 3291 2770 3770 
Q 2525 4250 2034 4250 
z
M 2034 4750 
Q 2819 4750 3233 4129 
Q 3647 3509 3647 2328 
Q 3647 1150 3233 529 
Q 2819 -91 2034 -91 
Q 1250 -91 836 529 
Q 422 1150 422 2328 
Q 422 3509 836 4129 
Q 1250 4750 2034 4750 
z
" transform="scale(0.015625)"/>
       </defs>
       <use xlink:href="#DejaVuSans-31"/>
       <use xlink:href="#DejaVuSans-30" x="63.623047"/>
      </g>
     </g>
    </g>
    <g id="xtick_2">
     <g id="line2d_2">
      <g>
       <use xlink:href="#m89384714b4" x="182.049186" y="307.584" style="stroke: #000000; stroke-width: 0.8"/>
      </g>
     </g>
     <g id="text_2">
      <!-- 20 -->
      <g transform="translate(175.686686 322.182437)scale(0.1 -0.1)">
       <defs>
        <path id="DejaVuSans-32" d="M 1228 531 
L 3431 531 
L 3431 0 
L 469 0 
L 469 531 
Q 828 903 1448 1529 
Q 2069 2156 2228 2338 
Q 2531 2678 2651 2914 
Q 2772 3150 2772 3378 
Q 2772 3750 2511 3984 
Q 2250 4219 1831 4219 
Q 1534 4219 1204 4116 
Q 875 4013 500 3803 
L 500 4441 
Q 881 4594 1212 4672 
Q 1544 4750 1819 4750 
Q 2544 4750 2975 4387 
Q 3406 4025 3406 3419 
Q 3406 3131 3298 2873 
Q 3191 2616 2906 2266 
Q 2828 2175 2409 1742 
Q 1991 1309 1228 531 
z
" transform="scale(0.015625)"/>
       </defs>
       <use xlink:href="#DejaVuSans-32"/>
       <use xlink:href="#DejaVuSans-30" x="63.623047"/>
      </g>
     </g>
    </g>
    <g id="xtick_3">
     <g id="line2d_3">
      <g>
       <use xlink:href="#m89384714b4" x="254.195215" y="307.584" style="stroke: #000000; stroke-width: 0.8"/>
      </g>
     </g>
     <g id="text_3">
      <!-- 30 -->
      <g transform="translate(247.832715 322.182437)scale(0.1 -0.1)">
       <defs>
        <path id="DejaVuSans-33" d="M 2597 2516 
Q 3050 2419 3304 2112 
Q 3559 1806 3559 1356 
Q 3559 666 3084 287 
Q 2609 -91 1734 -91 
Q 1441 -91 1130 -33 
Q 819 25 488 141 
L 488 750 
Q 750 597 1062 519 
Q 1375 441 1716 441 
Q 2309 441 2620 675 
Q 2931 909 2931 1356 
Q 2931 1769 2642 2001 
Q 2353 2234 1838 2234 
L 1294 2234 
L 1294 2753 
L 1863 2753 
Q 2328 2753 2575 2939 
Q 2822 3125 2822 3475 
Q 2822 3834 2567 4026 
Q 2313 4219 1838 4219 
Q 1578 4219 1281 4162 
Q 984 4106 628 3988 
L 628 4550 
Q 988 4650 1302 4700 
Q 1616 4750 1894 4750 
Q 2613 4750 3031 4423 
Q 3450 4097 3450 3541 
Q 3450 3153 3228 2886 
Q 3006 2619 2597 2516 
z
" transform="scale(0.015625)"/>
       </defs>
       <use xlink:href="#DejaVuSans-33"/>
       <use xlink:href="#DejaVuSans-30" x="63.623047"/>
      </g>
     </g>
    </g>
    <g id="xtick_4">
     <g id="line2d_4">
      <g>
       <use xlink:href="#m89384714b4" x="326.341244" y="307.584" style="stroke: #000000; stroke-width: 0.8"/>
      </g>
     </g>
     <g id="text_4">
      <!-- 40 -->
      <g transform="translate(319.978744 322.182437)scale(0.1 -0.1)">
       <defs>
        <path id="DejaVuSans-34" d="M 2419 4116 
L 825 1625 
L 2419 1625 
L 2419 4116 
z
M 2253 4666 
L 3047 4666 
L 3047 1625 
L 3713 1625 
L 3713 1100 
L 3047 1100 
L 3047 0 
L 2419 0 
L 2419 1100 
L 313 1100 
L 313 1709 
L 2253 4666 
z
" transform="scale(0.015625)"/>
       </defs>
       <use xlink:href="#DejaVuSans-34"/>
       <use xlink:href="#DejaVuSans-30" x="63.623047"/>
      </g>
     </g>
    </g>
    <g id="xtick_5">
     <g id="line2d_5">
      <g>
       <use xlink:href="#m89384714b4" x="398.487273" y="307.584" style="stroke: #000000; stroke-width: 0.8"/>
      </g>
     </g>
     <g id="text_5">
      <!-- 50 -->
      <g transform="translate(392.124773 322.182437)scale(0.1 -0.1)">
       <defs>
        <path id="DejaVuSans-35" d="M 691 4666 
L 3169 4666 
L 3169 4134 
L 1269 4134 
L 1269 2991 
Q 1406 3038 1543 3061 
Q 1681 3084 1819 3084 
Q 2600 3084 3056 2656 
Q 3513 2228 3513 1497 
Q 3513 744 3044 326 
Q 2575 -91 1722 -91 
Q 1428 -91 1123 -41 
Q 819 9 494 109 
L 494 744 
Q 775 591 1075 516 
Q 1375 441 1709 441 
Q 2250 441 2565 725 
Q 2881 1009 2881 1497 
Q 2881 1984 2565 2268 
Q 2250 2553 1709 2553 
Q 1456 2553 1204 2497 
Q 953 2441 691 2322 
L 691 4666 
z
" transform="scale(0.015625)"/>
       </defs>
       <use xlink:href="#DejaVuSans-35"/>
       <use xlink:href="#DejaVuSans-30" x="63.623047"/>
      </g>
     </g>
    </g>
    <g id="text_6">
     <!-- 2θ -->
     <g transform="translate(229.919375 335.860562)scale(0.1 -0.1)">
      <defs>
       <path id="DejaVuSans-3b8" d="M 2953 2219 
L 963 2219 
Q 1009 1284 1225 888 
Q 1494 400 1959 400 
Q 2428 400 2688 891 
Q 2916 1322 2953 2219 
z
M 2944 2750 
Q 2856 3638 2688 3950 
Q 2419 4444 1959 4444 
Q 1481 4444 1228 3956 
Q 1028 3563 969 2750 
L 2944 2750 
z
M 1959 4913 
Q 2709 4913 3138 4250 
Q 3566 3591 3566 2422 
Q 3566 1256 3138 594 
Q 2709 -72 1959 -72 
Q 1206 -72 781 594 
Q 353 1256 353 2422 
Q 353 3591 781 4250 
Q 1206 4913 1959 4913 
z
" transform="scale(0.015625)"/>
      </defs>
      <use xlink:href="#DejaVuSans-32"/>
      <use xlink:href="#DejaVuSans-3b8" x="63.623047"/>
     </g>
    </g>
   </g>
   <g id="matplotlib.axis_2">
    <g id="text_7">
     <!-- Intensity -->
     <g transform="translate(48.020313 196.2905)rotate(-90)scale(0.1 -0.1)">
      <defs>
       <path id="DejaVuSans-49" d="M 628 4666 
L 1259 4666 
L 1259 0 
L 628 0 
L 628 4666 
z
" transform="scale(0.015625)"/>
       <path id="DejaVuSans-6e" d="M 3513 2113 
L 3513 0 
L 2938 0 
L 2938 2094 
Q 2938 2591 2744 2837 
Q 2550 3084 2163 3084 
Q 1697 3084 1428 2787 
Q 1159 2491 1159 1978 
L 1159 0 
L 581 0 
L 581 3500 
L 1159 3500 
L 1159 2956 
Q 1366 3272 1645 3428 
Q 1925 3584 2291 3584 
Q 2894 3584 3203 3211 
Q 3513 2838 3513 2113 
z
" transform="scale(0.015625)"/>
       <path id="DejaVuSans-74" d="M 1172 4494 
L 1172 3500 
L 2356 3500 
L 2356 3053 
L 1172 3053 
L 1172 1153 
Q 1172 725 1289 603 
Q 1406 481 1766 481 
L 2356 481 
L 2356 0 
L 1766 0 
Q 1100 0 847 248 
Q 594 497 594 1153 
L 594 3053 
L 172 3053 
L 172 3500 
L 594 3500 
L 594 4494 
L 1172 4494 
z
" transform="scale(0.015625)"/>
       <path id="DejaVuSans-65" d="M 3597 1894 
L 3597 1613 
L 953 1613 
Q 991 1019 1311 708 
Q 1631 397 2203 397 
Q 2534 397 2845 478 
Q 3156 559 3463 722 
L 3463 178 
Q 3153 47 2828 -22 
Q 2503 -91 2169 -91 
Q 1331 -91 842 396 
Q 353 884 353 1716 
Q 353 2575 817 3079 
Q 1281 3584 2069 3584 
Q 2775 3584 3186 3129 
Q 3597 2675 3597 1894 
z
M 3022 2063 
Q 3016 2534 2758 2815 
Q 2500 3097 2075 3097 
Q 1594 3097 1305 2825 
Q 1016 2553 972 2059 
L 3022 2063 
z
" transform="scale(0.015625)"/>
       <path id="DejaVuSans-73" d="M 2834 3397 
L 2834 2853 
Q 2591 2978 2328 3040 
Q 2066 3103 1784 3103 
Q 1356 3103 1142 2972 
Q 928 2841 928 2578 
Q 928 2378 1081 2264 
Q 1234 2150 1697 2047 
L 1894 2003 
Q 2506 1872 2764 1633 
Q 3022 1394 3022 966 
Q 3022 478 2636 193 
Q 2250 -91 1575 -91 
Q 1294 -91 989 -36 
Q 684 19 347 128 
L 347 722 
Q 666 556 975 473 
Q 1284 391 1588 391 
Q 1994 391 2212 530 
Q 2431 669 2431 922 
Q 2431 1156 2273 1281 
Q 2116 1406 1581 1522 
L 1381 1569 
Q 847 1681 609 1914 
Q 372 2147 372 2553 
Q 372 3047 722 3315 
Q 1072 3584 1716 3584 
Q 2034 3584 2315 3537 
Q 2597 3491 2834 3397 
z
" transform="scale(0.015625)"/>
       <path id="DejaVuSans-69" d="M 603 3500 
L 1178 3500 
L 1178 0 
L 603 0 
L 603 3500 
z
M 603 4863 
L 1178 4863 
L 1178 4134 
L 603 4134 
L 603 4863 
z
" transform="scale(0.015625)"/>
       <path id="DejaVuSans-79" d="M 2059 -325 
Q 1816 -950 1584 -1140 
Q 1353 -1331 966 -1331 
L 506 -1331 
L 506 -850 
L 844 -850 
Q 1081 -850 1212 -737 
Q 1344 -625 1503 -206 
L 1606 56 
L 191 3500 
L 800 3500 
L 1894 763 
L 2988 3500 
L 3597 3500 
L 2059 -325 
z
" transform="scale(0.015625)"/>
      </defs>
      <use xlink:href="#DejaVuSans-49"/>
      <use xlink:href="#DejaVuSans-6e" x="29.492188"/>
      <use xlink:href="#DejaVuSans-74" x="92.871094"/>
      <use xlink:href="#DejaVuSans-65" x="132.080078"/>
      <use xlink:href="#DejaVuSans-6e" x="193.603516"/>
      <use xlink:href="#DejaVuSans-73" x="256.982422"/>
      <use xlink:href="#DejaVuSans-69" x="309.082031"/>
      <use xlink:href="#DejaVuSans-74" x="336.865234"/>
      <use xlink:href="#DejaVuSans-79" x="376.074219"/>
     </g>
    </g>
   </g>
   <g id="line2d_6">
    <path d="M 73.901325 53.568 
L 75.62606 68.639793 
L 77.037207 78.37622 
L 78.448354 86.756871 
L 79.545912 92.128512 
L 80.957059 97.694275 
L 83.465765 106.874657 
L 84.406529 109.550205 
L 85.033706 110.758845 
L 85.347294 111.052605 
L 85.660882 111.056701 
L 85.97447 110.70044 
L 86.288059 109.910771 
L 86.758441 107.779873 
L 87.228823 104.404283 
L 87.856 97.974765 
L 89.737529 75.7601 
L 90.051117 74.599706 
L 90.207911 74.554314 
L 90.364705 74.879849 
L 90.678293 76.637102 
L 91.148676 81.823638 
L 91.775852 92.297486 
L 93.186999 117.338811 
L 93.814175 124.615288 
L 94.441352 129.142692 
L 94.911734 131.140375 
L 95.382116 132.320213 
L 95.852499 133.007478 
L 96.636469 133.689234 
L 98.047616 134.792325 
L 98.988381 135.879227 
L 101.183498 138.669464 
L 102.281057 139.665528 
L 104.162586 141.18306 
L 107.141674 143.966492 
L 107.76885 144.128582 
L 108.396027 144.053246 
L 108.866409 143.775631 
L 109.336791 143.269247 
L 109.963968 142.182536 
L 110.747938 140.245763 
L 111.688703 137.961823 
L 112.159085 137.257233 
L 112.472673 137.031511 
L 112.786261 137.024275 
L 113.099849 137.25412 
L 113.570232 138.05605 
L 114.197408 139.760491 
L 115.294967 142.768109 
L 115.922143 143.879006 
L 116.706114 144.757024 
L 117.960467 146.03689 
L 118.744437 147.231376 
L 120.939554 150.919415 
L 122.037113 152.301953 
L 122.977878 153.210515 
L 123.605054 153.508385 
L 124.075436 153.459653 
L 124.545819 153.115433 
L 125.016201 152.424035 
L 125.486583 151.300812 
L 125.956966 149.648081 
L 126.584142 146.455985 
L 127.211318 141.985046 
L 129.249642 125.730588 
L 129.56323 124.640044 
L 129.876818 124.255806 
L 130.033612 124.351806 
L 130.3472 125.146697 
L 130.660789 126.737513 
L 131.131171 130.416416 
L 133.0127 147.443058 
L 133.639876 150.477595 
L 134.110259 151.811858 
L 134.580641 152.542476 
L 135.051023 152.857751 
L 135.521406 152.908801 
L 136.46217 152.691387 
L 137.873317 152.420493 
L 138.657288 152.464643 
L 139.91164 152.863424 
L 140.695611 152.974782 
L 141.165993 152.819393 
L 141.636376 152.446867 
L 142.420346 151.465701 
L 143.517905 150.08699 
L 143.988287 149.755213 
L 144.458669 149.708724 
L 144.772257 149.877209 
L 145.24264 150.433686 
L 145.869816 151.587357 
L 147.437757 154.696052 
L 148.378522 155.970311 
L 149.632875 157.273905 
L 150.416845 157.848715 
L 152.14158 158.663266 
L 152.768757 158.732322 
L 153.239139 158.571993 
L 153.709521 158.191214 
L 154.336698 157.337042 
L 155.277462 155.485711 
L 156.218227 153.746414 
L 156.688609 153.244333 
L 157.002197 153.14384 
L 157.315785 153.256668 
L 157.786168 153.802227 
L 158.413344 155.068488 
L 160.608462 160.136461 
L 161.392432 161.35823 
L 162.176402 162.196314 
L 162.803579 162.53869 
L 163.273961 162.562797 
L 163.744343 162.353256 
L 164.214726 161.88053 
L 164.685108 161.107467 
L 165.15549 159.967219 
L 165.782667 157.773345 
L 166.566637 153.9921 
L 167.664196 148.542161 
L 168.134578 147.049414 
L 168.448166 146.548963 
L 168.604961 146.476607 
L 168.761755 146.532161 
L 169.075343 147.037823 
L 169.388931 148.054636 
L 169.859313 150.365024 
L 171.27046 158.129333 
L 171.740843 159.706188 
L 172.211225 160.658121 
L 172.681607 161.117616 
L 173.151989 161.234807 
L 173.779166 161.062944 
L 175.033519 160.333589 
L 175.817489 159.977532 
L 176.444666 159.934158 
L 176.915048 160.116838 
L 177.542224 160.613398 
L 179.110165 162.007237 
L 180.521312 162.792567 
L 181.618871 163.265564 
L 183.5004 163.78356 
L 184.441165 164.363741 
L 186.009106 165.424373 
L 186.636282 165.581947 
L 187.420252 165.533657 
L 190.712929 164.907826 
L 191.653693 165.072703 
L 193.692016 165.587871 
L 194.475987 165.495097 
L 194.946369 165.243461 
L 195.573546 164.625214 
L 196.357516 163.460529 
L 197.768663 161.215047 
L 198.239045 160.789846 
L 198.709428 160.685559 
L 199.023016 160.828996 
L 199.493398 161.349389 
L 200.277369 162.714566 
L 201.531721 164.843908 
L 202.315692 165.736275 
L 202.942868 166.099375 
L 203.570045 166.185156 
L 204.354015 166.057797 
L 206.862721 165.386746 
L 207.489897 165.56532 
L 208.901044 166.140481 
L 209.52822 166.079935 
L 210.468985 165.65725 
L 211.723338 164.867034 
L 212.350514 164.267405 
L 213.134485 163.161065 
L 215.016014 160.116407 
L 215.486396 159.805579 
L 215.799984 159.826249 
L 216.113573 160.056149 
L 216.583955 160.768522 
L 217.367925 162.587102 
L 218.30869 164.650023 
L 218.935866 165.440691 
L 219.406249 165.667308 
L 219.876631 165.591689 
L 220.347013 165.228432 
L 220.97419 164.399276 
L 222.385337 162.35138 
L 222.855719 162.011954 
L 223.326101 162.003761 
L 223.796483 162.319034 
L 224.42366 163.119731 
L 225.991601 165.400119 
L 226.461983 165.661966 
L 226.775571 165.631625 
L 227.089159 165.42526 
L 227.559542 164.786309 
L 228.029924 163.761357 
L 228.6571 161.852794 
L 230.695424 155.006916 
L 231.165806 154.372559 
L 231.479394 154.348443 
L 231.792982 154.666942 
L 232.106571 155.330168 
L 232.576953 156.878727 
L 234.144894 162.727249 
L 234.77207 164.017452 
L 235.242453 164.550825 
L 235.712835 164.821703 
L 236.340011 164.9143 
L 241.043834 164.481849 
L 243.238952 163.941418 
L 244.022922 163.664023 
L 244.806893 163.137561 
L 246.061245 162.221012 
L 246.845216 161.950466 
L 247.942775 161.623927 
L 248.726745 161.130422 
L 249.510716 160.407555 
L 250.294686 159.33827 
L 251.705833 156.864753 
L 252.333009 155.94486 
L 252.803392 155.604188 
L 253.11698 155.596655 
L 253.430568 155.770151 
L 253.90095 156.321611 
L 255.468891 158.542639 
L 255.939274 158.731897 
L 256.409656 158.633493 
L 257.036832 158.187737 
L 258.918362 156.541664 
L 259.388744 156.373563 
L 259.859126 156.426002 
L 260.329508 156.717792 
L 261.113479 157.578514 
L 262.054244 158.577065 
L 262.68142 158.900765 
L 263.308596 158.929785 
L 263.935773 158.746585 
L 264.719743 158.264266 
L 265.974096 157.424026 
L 266.444478 157.351749 
L 266.914861 157.533925 
L 267.542037 158.134374 
L 268.639596 159.256461 
L 269.109978 159.463436 
L 269.58036 159.437294 
L 270.050743 159.167727 
L 270.677919 158.481447 
L 272.24586 156.498351 
L 272.716242 156.293501 
L 273.029831 156.351938 
L 273.500213 156.753642 
L 274.127389 157.716854 
L 275.381742 159.769264 
L 276.008918 160.381729 
L 276.636095 160.695236 
L 277.420065 160.813951 
L 278.36083 160.727259 
L 279.771977 160.3239 
L 284.005417 159.013602 
L 284.632594 159.096718 
L 285.25977 159.450139 
L 287.298094 160.963191 
L 287.768476 160.967658 
L 288.238858 160.727317 
L 288.866035 160.052876 
L 290.277181 158.249003 
L 290.747564 157.98788 
L 291.061152 158.003502 
L 291.37474 158.193757 
L 291.845122 158.794587 
L 292.472299 160.056132 
L 293.726652 162.759824 
L 294.353828 163.656959 
L 294.981004 164.217806 
L 296.078563 164.813077 
L 297.332916 165.538032 
L 298.900857 166.529057 
L 299.528033 166.633665 
L 300.15521 166.451349 
L 300.782386 166.012171 
L 302.350327 164.731928 
L 302.820709 164.760213 
L 303.291092 165.128187 
L 303.918268 166.022341 
L 305.172621 167.89671 
L 305.799797 168.410101 
L 306.426974 168.592078 
L 307.210944 168.532485 
L 307.994915 168.511945 
L 308.465297 168.687657 
L 309.092473 169.181742 
L 312.071561 172.005723 
L 312.855532 172.315381 
L 315.521031 172.921343 
L 316.148208 172.695603 
L 318.970502 171.248919 
L 319.597678 171.313457 
L 320.224854 171.649087 
L 321.008825 172.381705 
L 322.106384 173.378889 
L 322.890354 173.725322 
L 323.674325 173.803773 
L 325.242266 173.831388 
L 327.594177 174.337789 
L 328.691736 174.530086 
L 330.102883 175.046756 
L 334.179529 176.655519 
L 334.9635 176.664185 
L 335.904264 176.430455 
L 340.294499 174.839418 
L 340.921675 174.944411 
L 343.273587 175.685795 
L 346.566263 176.022562 
L 348.604586 176.730674 
L 350.956498 177.064286 
L 353.151615 177.692257 
L 354.249174 177.935977 
L 355.973909 178.489268 
L 357.228262 178.535552 
L 358.012232 178.36271 
L 359.736967 177.790488 
L 360.520938 177.859089 
L 361.618496 178.223764 
L 362.402467 178.4551 
L 363.029643 178.428617 
L 364.127202 178.08056 
L 367.419878 176.968094 
L 368.203849 176.974702 
L 368.831025 177.230672 
L 369.77179 177.940361 
L 370.712554 178.589443 
L 371.496525 178.844955 
L 372.437289 178.898106 
L 374.632407 178.796089 
L 375.259583 179.101294 
L 377.4547 180.465108 
L 378.081877 180.470403 
L 378.709053 180.240465 
L 380.276994 179.483649 
L 383.099288 179.024379 
L 383.726464 179.147952 
L 384.510435 179.569671 
L 385.764788 180.323304 
L 386.391964 180.413566 
L 387.332729 180.199493 
L 388.273493 180.030757 
L 389.057464 180.123604 
L 390.625405 180.391668 
L 391.879758 180.392053 
L 395.01564 180.109088 
L 396.426786 179.560223 
L 397.053963 179.613074 
L 398.46511 180.079958 
L 398.46511 180.079958 
" clip-path="url(#pe3e53beca5)" style="fill: none; stroke: #1f77b4; stroke-width: 1.5; stroke-linecap: square"/>
   </g>
   <g id="line2d_7">
    <path d="M 73.88377 185.814822 
L 74.667741 187.473871 
L 75.451711 188.585452 
L 79.685152 193.656029 
L 81.488284 195.090966 
L 82.350651 195.436271 
L 83.291416 195.854139 
L 84.232181 196.168571 
L 84.937754 196.674591 
L 86.270504 197.789284 
L 88.308827 198.756474 
L 89.876768 199.116695 
L 90.739136 199.392217 
L 92.542268 199.996086 
L 93.247841 200.015175 
L 94.188606 200.021172 
L 95.67815 200.405298 
L 96.854106 200.767071 
L 97.873267 200.779442 
L 98.500444 201.089556 
L 99.049223 201.322759 
L 99.519605 201.265097 
L 100.46037 201.107414 
L 101.557928 201.165276 
L 102.812281 201.446541 
L 104.69381 202.154026 
L 105.556178 202.121203 
L 107.35931 201.991004 
L 109.162442 202.175588 
L 111.200766 202.515464 
L 112.219927 202.846628 
L 112.847104 202.741846 
L 114.179853 202.505232 
L 114.963824 202.578073 
L 116.296574 202.668296 
L 117.158941 202.673363 
L 119.040471 202.797329 
L 120.059632 202.852864 
L 122.411544 203.077388 
L 124.920249 203.093508 
L 127.664146 202.515863 
L 129.075293 202.325363 
L 129.93766 202.186369 
L 130.956822 202.365774 
L 132.211175 202.656203 
L 134.563086 202.413891 
L 136.05263 202.251611 
L 136.679807 202.356927 
L 138.639733 202.836896 
L 140.521262 202.842594 
L 142.951571 202.59402 
L 143.813938 202.316482 
L 144.519512 202.413092 
L 145.538673 202.498882 
L 147.420202 202.590558 
L 148.988143 203.010345 
L 151.261658 202.721806 
L 152.045628 203.038497 
L 152.829599 203.244345 
L 153.535172 203.196828 
L 154.475937 203.073606 
L 155.808687 203.43113 
L 157.219834 203.662745 
L 158.238995 203.615207 
L 159.336554 203.561628 
L 160.982892 203.814851 
L 161.923657 203.644349 
L 170.704126 203.657711 
L 171.566494 203.720738 
L 172.350464 203.757878 
L 173.52642 203.93975 
L 175.878331 203.775639 
L 176.897493 203.907798 
L 178.073449 203.969999 
L 179.562993 203.864771 
L 180.817346 203.852205 
L 182.150095 203.908409 
L 183.718036 203.952758 
L 186.148345 203.79301 
L 190.146594 203.914433 
L 191.479344 203.998946 
L 193.98805 203.817165 
L 194.928814 203.971631 
L 195.477594 203.90655 
L 196.575153 203.669462 
L 197.202329 203.812107 
L 198.064696 203.969857 
L 198.848667 203.877521 
L 199.946226 203.677914 
L 200.651799 203.736958 
L 201.278975 204.063584 
L 201.906152 204.282815 
L 202.846916 204.324212 
L 203.709284 204.157284 
L 204.806843 203.974471 
L 207.00196 203.847267 
L 209.040283 203.883696 
L 212.019371 203.802357 
L 215.468841 202.984175 
L 216.331209 202.346721 
L 217.271974 201.403762 
L 217.977547 200.388582 
L 218.604723 199.043269 
L 219.2319 197.130459 
L 219.937473 194.229918 
L 221.975797 185.20229 
L 222.367782 184.583659 
L 222.602973 184.525121 
L 222.838164 184.719551 
L 223.151752 185.35704 
L 223.622135 186.925086 
L 224.327708 190.229065 
L 225.582061 196.117011 
L 226.366031 198.641978 
L 227.150002 200.483993 
L 227.698781 201.235829 
L 229.737104 203.132829 
L 230.442678 203.345309 
L 230.991457 203.584799 
L 231.853825 203.999998 
L 234.676119 204.419962 
L 235.303295 204.364504 
L 236.400854 204.198302 
L 237.890398 204.390479 
L 239.379942 204.719644 
L 241.496662 204.621182 
L 243.613382 204.803738 
L 244.397353 204.782135 
L 245.25972 204.769659 
L 248.160411 205.12155 
L 249.963543 204.934551 
L 250.982705 205.134732 
L 252.629043 205.50294 
L 256.862484 205.158939 
L 258.27363 205.285355 
L 259.371189 205.174728 
L 261.409512 205.322138 
L 262.350277 205.438761 
L 263.447836 205.255338 
L 264.702189 205.078872 
L 272.306702 205.516262 
L 273.561055 205.303303 
L 274.266629 205.306013 
L 275.912967 205.519276 
L 277.245716 205.447422 
L 278.186481 205.629982 
L 281.165569 205.479069 
L 282.184731 205.35654 
L 283.047098 205.463408 
L 284.379848 205.620508 
L 285.790995 205.594139 
L 286.731759 205.575143 
L 287.907715 205.489007 
L 289.867641 205.814063 
L 291.121994 205.678165 
L 292.768332 205.521606 
L 295.120244 205.672345 
L 296.688185 205.600812 
L 298.177729 205.744097 
L 301.705596 205.387795 
L 302.646361 205.23414 
L 305.625448 204.513161 
L 307.585375 204.109421 
L 308.839727 204.092954 
L 309.858889 203.94131 
L 310.329271 203.611362 
L 310.878051 202.93123 
L 311.583624 201.594174 
L 312.837977 199.096747 
L 313.229962 198.779239 
L 313.54355 198.763866 
L 313.857139 198.995347 
L 314.327521 199.687785 
L 316.052256 202.473957 
L 316.757829 203.367813 
L 317.306609 203.717314 
L 318.247373 203.937669 
L 319.736917 204.272796 
L 321.775241 205.070649 
L 324.832726 205.568232 
L 326.243872 205.418271 
L 326.949446 205.670098 
L 327.655019 205.899962 
L 328.360593 205.884547 
L 330.398916 205.623589 
L 333.142813 205.740558 
L 333.848386 205.737128 
L 336.827474 205.884447 
L 342.315268 205.804725 
L 343.726414 205.831713 
L 345.137561 205.748372 
L 346.627105 205.92602 
L 347.881458 205.960945 
L 349.371002 205.922957 
L 350.625355 206.07846 
L 351.330928 206.054894 
L 352.585281 205.919563 
L 353.996428 205.793142 
L 354.937193 205.786061 
L 357.681089 205.916716 
L 359.24903 205.812978 
L 360.738574 205.817648 
L 362.149721 205.905466 
L 363.325677 205.856148 
L 364.423236 205.800621 
L 368.735073 205.760297 
L 369.675838 205.714242 
L 372.184543 206.008656 
L 374.771646 205.558973 
L 375.790808 205.425919 
L 378.064322 205.604033 
L 378.769896 205.594635 
L 379.397072 205.353279 
L 380.416234 204.92122 
L 381.278601 204.564123 
L 381.905778 204.04355 
L 382.611351 203.153163 
L 385.120057 199.535539 
L 385.747233 199.047297 
L 386.217615 198.903485 
L 386.609601 198.982735 
L 387.079983 199.312155 
L 387.707159 200.088714 
L 390.294262 203.504667 
L 391.078232 204.168488 
L 392.646173 205.178182 
L 393.27335 205.33605 
L 394.919688 205.494119 
L 396.409232 205.692958 
L 398.212364 205.773098 
L 398.447555 205.869237 
L 398.447555 205.869237 
" clip-path="url(#pe3e53beca5)" style="fill: none; stroke: #ff7f0e; stroke-width: 1.5; stroke-linecap: square"/>
   </g>
   <g id="line2d_8">
    <path d="M 73.832727 247.315521 
L 74.087518 247.189732 
L 74.361907 247.292026 
L 74.695095 247.369574 
L 75.381069 247.367388 
L 75.89065 247.308923 
L 76.223837 247.552049 
L 76.537425 247.625207 
L 77.145003 247.847254 
L 77.399793 247.598872 
L 77.634984 247.53082 
L 77.830977 247.767257 
L 78.046569 247.916022 
L 78.399355 247.880939 
L 78.654146 247.91037 
L 79.006933 247.741711 
L 79.438116 248.053645 
L 79.888899 247.972673 
L 80.300484 248.119424 
L 80.810065 247.955408 
L 81.084454 248.115748 
L 81.554837 248.414974 
L 81.829226 248.236452 
L 82.652395 248.130392 
L 83.005182 248.077398 
L 83.377568 248.061782 
L 83.691156 247.947749 
L 84.259535 247.683644 
L 84.475127 247.65487 
L 85.494288 246.854244 
L 85.925472 246.199622 
L 86.376255 245.750751 
L 86.611446 245.108321 
L 87.101428 243.75767 
L 87.473814 242.578544 
L 88.042192 239.892535 
L 88.453777 236.520748 
L 89.041755 229.110281 
L 89.629733 218.039006 
L 90.080516 211.150167 
L 90.296108 210.114747 
L 90.315707 210.119305 
L 90.394104 210.344769 
L 90.550898 211.834181 
L 90.825288 217.345402 
L 91.903247 241.567763 
L 92.275633 245.057529 
L 92.589221 246.245287 
L 93.275196 247.745804 
L 94.137563 248.440299 
L 97.430239 249.063252 
L 97.900621 248.976509 
L 98.21421 249.141022 
L 98.586596 249.391272 
L 99.017779 249.395191 
L 99.252971 249.411904 
L 99.723353 249.242257 
L 100.07614 249.384953 
L 100.311331 249.431647 
L 100.801312 249.69136 
L 101.1345 249.629079 
L 101.448088 249.616747 
L 101.898871 249.614706 
L 102.134062 249.581962 
L 102.46725 249.707242 
L 103.290419 249.577668 
L 103.760801 249.763646 
L 104.074389 249.704411 
L 104.32918 249.658462 
L 105.348341 249.803654 
L 105.720727 249.666522 
L 106.269507 249.706691 
L 106.485098 249.762818 
L 106.837885 249.882481 
L 107.484661 249.791655 
L 107.77865 249.819961 
L 108.190234 249.732151 
L 108.719414 249.392101 
L 108.954605 249.371016 
L 109.601381 249.265855 
L 110.012966 248.920314 
L 110.306955 248.535989 
L 110.816535 247.609745 
L 111.365315 246.063052 
L 112.247282 243.01161 
L 112.384476 243.046961 
L 112.54127 243.501434 
L 113.89362 248.76833 
L 114.814785 249.674773 
L 115.069575 249.784492 
L 115.441961 249.957167 
L 115.971141 249.955718 
L 116.304329 250.014848 
L 117.049101 250.015008 
L 117.87227 250.2518 
L 118.264255 250.089996 
L 118.773836 250.26182 
L 119.224619 250.100682 
L 121.04735 250.157201 
L 121.341339 250.142231 
L 121.57653 250.124252 
L 121.968516 250.273517 
L 122.732887 250.246266 
L 123.18367 250.393559 
L 123.418861 250.178615 
L 123.771648 249.938608 
L 124.222431 250.07192 
L 124.51642 250.079835 
L 124.849607 249.772123 
L 125.104398 249.662764 
L 125.359188 249.635828 
L 126.123559 249.309082 
L 126.339151 249.213948 
L 126.829133 248.315108 
L 127.16232 247.394893 
L 127.867894 244.192474 
L 128.142283 241.759982 
L 128.847857 235.40193 
L 129.102647 234.434442 
L 129.337838 234.263873 
L 129.435835 234.433275 
L 129.612228 235.365823 
L 129.906217 238.252802 
L 130.592191 245.340046 
L 130.984176 247.267128 
L 131.611353 248.98376 
L 132.003338 249.523537 
L 132.689312 249.751648 
L 133.492882 249.947149 
L 133.963264 250.11877 
L 134.218055 250.118412 
L 134.512044 250.103382 
L 136.001588 250.361341 
L 136.315176 250.408024 
L 137.020749 250.320068 
L 137.393135 250.45353 
L 138.294701 250.304171 
L 138.58869 250.435893 
L 139.019874 250.268164 
L 140.058635 250.269677 
L 140.431021 250.360096 
L 141.685374 250.088384 
L 142.03816 249.770992 
L 142.253752 249.586238 
L 142.802532 248.892063 
L 143.11612 248.762212 
L 143.743296 248.384279 
L 143.91969 248.581059 
L 144.860454 250.056582 
L 145.468031 250.417499 
L 145.840417 250.460058 
L 146.349998 250.394961 
L 146.957575 250.517412 
L 147.153568 250.525659 
L 147.800344 250.779683 
L 148.388321 250.682926 
L 148.68231 250.77809 
L 149.093895 250.743305 
L 149.446682 250.811074 
L 150.054259 250.928495 
L 150.348248 251.063009 
L 150.54424 250.864898 
L 150.81863 250.640577 
L 151.34781 250.744348 
L 151.563402 250.747982 
L 152.014185 250.819796 
L 152.445369 250.766254 
L 152.798155 250.669622 
L 153.131343 250.776858 
L 153.46453 250.769799 
L 153.73892 250.711605 
L 154.032909 250.397812 
L 154.326898 250.166611 
L 154.699284 249.990938 
L 155.052071 249.273886 
L 155.561651 248.488862 
L 156.032034 247.91351 
L 156.267225 247.969692 
L 156.561214 248.347926 
L 157.090394 249.332895 
L 157.443181 250.036123 
L 158.129155 250.618727 
L 158.481942 250.680381 
L 158.815129 250.787079 
L 159.148316 250.921943 
L 160.069482 250.930261 
L 161.402232 250.876494 
L 161.951011 250.858544 
L 162.578187 250.905919 
L 163.146566 250.691921 
L 163.597349 250.843372 
L 164.008934 250.673454 
L 164.342121 250.488711 
L 164.753705 250.546755 
L 165.478878 249.911678 
L 165.988459 248.962664 
L 166.321646 248.035565 
L 166.75283 246.230629 
L 167.321209 243.835879 
L 167.536801 243.649143 
L 167.771992 243.911975 
L 167.987584 244.584939 
L 169.320334 249.88721 
L 169.829914 250.389987 
L 171.397855 250.904618 
L 171.789841 250.940403 
L 172.221024 250.997817 
L 172.59341 251.058146 
L 173.318583 251.115628 
L 174.670932 251.174805 
L 174.98452 251.134564 
L 175.396105 251.144629 
L 175.690094 251.21577 
L 176.023281 251.053187 
L 176.434866 250.943613 
L 176.983645 250.728687 
L 177.316833 250.599112 
L 177.591222 250.485635 
L 178.1792 250.546021 
L 178.590785 250.768047 
L 178.845575 250.731857 
L 179.100366 250.812102 
L 179.51195 250.986234 
L 179.825538 251.089515 
L 180.648707 251.303368 
L 180.923097 251.252274 
L 181.315082 251.304455 
L 181.530674 251.34544 
L 181.805064 251.389829 
L 182.314645 251.302888 
L 182.667431 251.450169 
L 182.941821 251.458579 
L 183.4906 251.313716 
L 183.843387 251.350696 
L 185.842512 251.324548 
L 186.332493 251.55884 
L 186.528486 251.381678 
L 186.822475 251.168342 
L 187.096865 251.308695 
L 187.410453 251.380023 
L 187.724041 251.452741 
L 188.233622 251.543755 
L 188.880397 251.408347 
L 189.233184 251.462067 
L 189.507574 251.499751 
L 190.017155 251.380338 
L 190.526736 251.584802 
L 190.801125 251.602351 
L 191.291107 251.459371 
L 191.683092 251.554906 
L 192.878647 251.286699 
L 193.623419 251.447383 
L 193.937007 251.359392 
L 194.289794 251.250831 
L 195.112963 251.242797 
L 195.661742 251.087594 
L 196.543709 250.499946 
L 196.896496 250.308592 
L 197.719665 250.335983 
L 198.444838 250.989566 
L 198.91522 251.107632 
L 199.268007 251.300175 
L 199.69919 251.268299 
L 200.110775 251.267209 
L 200.561558 251.425145 
L 201.071139 251.45741 
L 202.874271 251.553403 
L 203.285855 251.53051 
L 203.913032 251.547648 
L 204.285418 251.469918 
L 204.677403 251.372873 
L 205.167385 251.362606 
L 205.578969 251.272532 
L 205.970954 251.181926 
L 206.421737 251.384727 
L 207.4017 251.475463 
L 208.401263 251.488287 
L 208.852046 251.593483 
L 209.26363 251.56879 
L 210.243593 251.511179 
L 211.39995 251.532026 
L 211.595943 251.48569 
L 211.948729 251.32668 
L 212.20352 251.236076 
L 212.791498 250.921817 
L 213.046288 250.775947 
L 213.51667 250.070784 
L 214.163446 249.090802 
L 214.339839 249.115765 
L 214.633828 249.46111 
L 215.045413 249.948164 
L 215.437398 250.27223 
L 216.280166 251.164667 
L 216.71135 251.228678 
L 217.456122 251.574028 
L 218.57328 251.54056 
L 219.063262 251.442004 
L 219.35725 251.40825 
L 219.612041 251.470171 
L 220.004026 251.558854 
L 220.650802 251.345007 
L 221.552368 250.903388 
L 221.983552 250.658472 
L 222.532331 250.323146 
L 222.82632 250.675471 
L 223.120309 250.84641 
L 223.492695 250.989563 
L 224.492257 251.422148 
L 226.608978 251.477508 
L 226.824569 251.384751 
L 227.098959 251.289946 
L 227.432147 251.284798 
L 227.804533 251.208729 
L 228.059323 251.097295 
L 228.568904 250.49989 
L 229.411672 248.802047 
L 229.705661 248.392907 
L 230.058448 248.2007 
L 230.27404 248.366718 
L 230.587628 248.896925 
L 230.940415 249.500638 
L 231.195205 249.947843 
L 231.685187 250.784209 
L 232.331962 251.136858 
L 232.91994 251.276109 
L 233.899903 251.534155 
L 234.723072 251.607076 
L 235.154256 251.787916 
L 235.526642 251.679158 
L 236.095021 251.493699 
L 237.741359 251.658552 
L 238.290138 251.543545 
L 239.230903 251.624733 
L 240.014873 251.248464 
L 240.720446 251.408054 
L 240.955638 251.460219 
L 241.328024 251.522685 
L 243.366347 251.458361 
L 244.111119 251.39688 
L 244.718696 251.210693 
L 245.894652 251.534658 
L 246.090644 251.589097 
L 246.541427 251.507225 
L 246.855016 251.578335 
L 247.168604 251.630767 
L 247.462593 251.619721 
L 248.34456 251.332817 
L 248.775743 251.455771 
L 250.382883 250.614496 
L 250.970861 249.942634 
L 251.460842 249.467941 
L 251.79403 249.443322 
L 252.04882 249.733576 
L 252.85239 250.6808 
L 253.12678 250.798472 
L 253.734357 251.049149 
L 254.537926 251.173237 
L 254.910312 251.302896 
L 255.635485 251.318007 
L 255.949073 251.322633 
L 256.419456 251.137961 
L 256.870239 250.892633 
L 257.37982 250.645642 
L 257.693408 250.280119 
L 257.987397 250.133472 
L 258.477378 250.081639 
L 258.653772 250.113594 
L 260.02572 251.062723 
L 260.378507 251.264756 
L 260.750893 251.458128 
L 261.044882 251.396502 
L 261.338871 251.380553 
L 261.926848 251.577831 
L 262.16204 251.475761 
L 262.612823 251.211062 
L 263.279197 251.05222 
L 263.631984 250.888631 
L 264.00437 250.904967 
L 264.396355 250.622449 
L 265.06273 250.511142 
L 265.297922 250.461193 
L 265.846701 250.835769 
L 266.297484 251.101206 
L 266.591473 251.318907 
L 267.179451 251.547233 
L 267.434241 251.475089 
L 267.689032 251.463974 
L 268.022219 251.510074 
L 268.25741 251.554458 
L 268.590598 251.636048 
L 269.158976 251.455645 
L 269.59016 251.596793 
L 270.64852 250.714617 
L 271.373693 250.456373 
L 272.157663 250.907816 
L 273.647207 251.607259 
L 273.941196 251.646722 
L 274.548773 251.649146 
L 274.823163 251.694758 
L 275.352343 251.787104 
L 278.37063 251.609421 
L 278.62542 251.634927 
L 278.89981 251.655512 
L 279.526986 251.823636 
L 280.565747 251.747039 
L 280.898934 251.78183 
L 282.055291 251.758035 
L 282.251283 251.680662 
L 282.545272 251.560423 
L 282.87846 251.471726 
L 283.192048 251.429241 
L 283.466438 251.349305 
L 283.819224 251.222221 
L 284.446401 251.419738 
L 284.857985 251.625186 
L 285.347967 251.670765 
L 285.622357 251.622391 
L 285.877147 251.639446 
L 286.621919 251.784635 
L 286.935507 251.704222 
L 287.405889 251.774905 
L 287.876272 251.62861 
L 288.523047 251.267528 
L 289.307018 250.741406 
L 289.992992 250.656713 
L 290.83576 251.336081 
L 291.149349 251.498432 
L 291.63933 251.5502 
L 292.364503 251.887493 
L 292.658492 251.857186 
L 292.952481 251.828756 
L 293.952043 251.99746 
L 294.246032 252.026178 
L 295.206396 251.872911 
L 295.539583 251.981025 
L 296.264756 251.908965 
L 297.401513 251.980226 
L 297.832697 251.989451 
L 298.067888 252.084407 
L 298.342278 252.141648 
L 298.989054 251.91939 
L 299.831822 251.8966 
L 300.537395 251.610809 
L 301.20377 251.417826 
L 301.634954 251.309038 
L 302.183733 251.536456 
L 302.869708 252.02063 
L 303.104899 252.091988 
L 304.065263 252.03188 
L 304.516046 252.136816 
L 305.594005 252.079831 
L 305.927192 251.930277 
L 306.338777 251.771277 
L 306.887556 251.699283 
L 307.142347 251.815691 
L 307.495133 252.00821 
L 308.886681 252.150851 
L 309.611854 252.267578 
L 310.141034 252.172091 
L 311.414986 252.407488 
L 311.630578 252.231571 
L 311.924567 252.060395 
L 312.37535 252.148861 
L 313.15932 252.350048 
L 313.747298 252.295246 
L 314.178482 252.508213 
L 314.844857 252.319004 
L 315.217243 252.502005 
L 315.628827 252.454538 
L 316.001213 252.459404 
L 317.118371 252.317737 
L 317.41236 252.233765 
L 317.980739 252.007763 
L 319.901467 252.369791 
L 320.156257 252.367026 
L 321.057823 252.463185 
L 322.586565 252.355651 
L 322.919753 252.273052 
L 323.919315 252.358871 
L 324.291701 252.259155 
L 324.605289 252.399599 
L 324.977675 252.479544 
L 325.350061 252.494358 
L 325.66365 252.526629 
L 326.526017 252.453892 
L 327.290388 252.597207 
L 327.682374 252.576942 
L 328.231153 252.571038 
L 329.465907 252.643267 
L 329.91669 252.630061 
L 330.485068 252.658148 
L 331.131844 252.493056 
L 331.445432 252.562856 
L 331.680623 252.58496 
L 332.03341 252.560235 
L 332.464594 252.642885 
L 332.83698 252.598125 
L 333.111369 252.538487 
L 333.738546 252.618355 
L 334.071733 252.702218 
L 334.404921 252.783937 
L 335.110494 252.696891 
L 336.090457 252.520748 
L 336.404045 252.478077 
L 336.874428 252.600533 
L 337.697597 252.352602 
L 337.971986 252.384571 
L 339.245938 252.171237 
L 339.73592 252.366601 
L 340.147505 252.32718 
L 340.676685 252.537824 
L 341.049071 252.486247 
L 341.480254 252.612563 
L 342.029034 252.552509 
L 343.400982 252.518885 
L 347.654022 252.632696 
L 347.869614 252.601059 
L 348.535989 252.371092 
L 349.143566 252.335915 
L 349.457154 252.344001 
L 349.947136 252.546185 
L 350.495915 252.437808 
L 351.475878 252.669848 
L 353.475003 252.586606 
L 353.80819 252.599061 
L 354.160977 252.551651 
L 356.454091 252.602057 
L 356.708881 252.653496 
L 356.983271 252.692936 
L 357.53205 252.445026 
L 358.472815 252.546658 
L 358.8648 252.632628 
L 359.217587 252.474503 
L 359.531175 252.423724 
L 360.099554 252.676097 
L 360.903123 252.616621 
L 362.177075 252.690794 
L 362.921847 252.490681 
L 364.666182 252.764239 
L 365.175763 252.780426 
L 365.606946 252.800663 
L 365.959733 252.675195 
L 367.841262 252.568533 
L 368.213648 252.599118 
L 370.643957 252.693688 
L 370.996744 252.66403 
L 371.447527 252.676403 
L 371.741516 252.564623 
L 372.192299 252.49187 
L 372.643082 252.500363 
L 373.113464 252.379483 
L 373.877835 252.636549 
L 374.250221 252.605214 
L 374.563809 252.606406 
L 375.092989 252.707086 
L 375.445776 252.706101 
L 375.739765 252.728513 
L 376.112151 252.663733 
L 376.641331 252.808431 
L 377.013717 252.740119 
L 377.99368 252.840466 
L 378.601257 252.731823 
L 379.934007 252.814362 
L 381.051165 252.668845 
L 381.384353 252.628271 
L 381.815536 252.635349 
L 382.266319 252.626018 
L 382.619106 252.690786 
L 382.971893 252.651837 
L 383.383477 252.709809 
L 383.677466 252.707138 
L 384.069452 252.755927 
L 384.461437 252.73564 
L 385.304205 252.836462 
L 385.794187 252.824248 
L 386.048977 252.816158 
L 386.832948 252.666386 
L 387.479723 252.765132 
L 388.753675 252.828737 
L 389.16526 252.853281 
L 389.596444 252.940889 
L 390.145223 252.778293 
L 392.34034 252.735302 
L 392.634329 252.764733 
L 393.124311 252.987958 
L 393.4183 252.701944 
L 393.633892 252.661583 
L 394.221869 252.789133 
L 394.672653 252.645107 
L 395.339027 252.607246 
L 395.907406 252.670396 
L 396.652178 252.679101 
L 397.181358 252.647227 
L 397.67134 252.75766 
L 398.298516 252.807562 
L 398.474909 252.497876 
L 398.474909 252.497876 
" clip-path="url(#pe3e53beca5)" style="fill: none; stroke: #2ca02c; stroke-width: 1.5; stroke-linecap: square"/>
   </g>
   <g id="line2d_9">
    <path d="M 73.844571 263.324902 
L 74.314964 263.048136 
L 74.824315 263.028185 
L 77.333553 263.287798 
L 77.999461 263.283325 
L 80.155185 263.450832 
L 81.095969 263.626452 
L 82.507145 263.601841 
L 84.03592 263.663874 
L 85.055343 263.698224 
L 87.956335 263.789964 
L 88.779521 263.826498 
L 92.934411 263.854689 
L 95.246691 263.869715 
L 96.069877 263.840588 
L 98.421838 263.877383 
L 99.872694 263.890135 
L 101.087633 263.890226 
L 102.734006 263.915917 
L 103.831347 263.891579 
L 104.536935 263.893171 
L 105.830513 263.900943 
L 106.6537 263.871726 
L 109.397413 263.9342 
L 110.416837 263.931125 
L 111.201064 263.981474 
L 115.669789 263.984488 
L 116.414336 263.96259 
L 120.843381 264.02209 
L 121.784165 263.986741 
L 122.411835 263.955686 
L 123.312939 264.013813 
L 125.861137 264.029501 
L 135.543134 264.062885 
L 146.479751 264.135205 
L 147.420535 264.089264 
L 148.243721 264.111329 
L 150.125289 264.090939 
L 151.183672 264.129356 
L 152.47725 264.107462 
L 153.535632 264.104484 
L 157.18045 264.126347 
L 158.474028 264.126575 
L 160.1204 264.137515 
L 164.628806 264.12592 
L 166.353096 264.135486 
L 167.568035 264.129846 
L 170.116233 264.118832 
L 172.742348 264.15017 
L 175.05535 264.134498 
L 177.838744 264.136809 
L 178.583291 264.112491 
L 180.425179 264.168856 
L 185.874368 264.127452 
L 194.575901 264.132202 
L 197.359295 264.117562 
L 215.076916 263.848838 
L 216.488093 263.623353 
L 217.311279 263.304568 
L 217.938228 262.839767 
L 218.40862 262.273781 
L 218.840053 261.416349 
L 219.389085 259.681626 
L 220.133632 257.570732 
L 220.525384 257.045613 
L 220.721622 257.06825 
L 220.917859 257.339283 
L 221.270653 258.321604 
L 222.367994 261.691303 
L 222.877345 262.558296 
L 223.582933 263.323106 
L 224.093006 263.57765 
L 225.386584 263.830355 
L 228.52205 264.004042 
L 230.050825 264.043134 
L 231.579599 264.072163 
L 234.480591 263.869212 
L 236.244561 263.27605 
L 236.753912 263.574273 
L 237.4595 263.95437 
L 238.165089 264.036371 
L 243.182123 264.064968 
L 244.04499 264.096857 
L 248.552674 264.163793 
L 249.572097 264.172922 
L 255.529916 264.185459 
L 256.353102 264.20056 
L 258.038434 264.169252 
L 260.155198 264.202383 
L 260.978384 264.194658 
L 264.23217 264.157334 
L 296.296751 264.120111 
L 297.943124 263.826256 
L 298.570073 263.785622 
L 301.274827 264.084737 
L 305.939068 263.940581 
L 307.977915 263.919837 
L 310.172597 263.232867 
L 310.878185 263.093239 
L 311.583774 263.211549 
L 312.917032 263.65798 
L 313.62262 263.81549 
L 315.268993 263.845168 
L 317.110881 263.863812 
L 320.442584 264.095477 
L 326.636321 264.192152 
L 337.494298 264.170355 
L 340.865682 264.225838 
L 342.551014 264.233492 
L 352.664444 264.225368 
L 354.546012 264.20601 
L 358.23051 264.207372 
L 359.484408 264.236429 
L 361.953967 264.207645 
L 363.56138 264.234912 
L 365.40399 264.253932 
L 374.22312 264.197298 
L 378.849124 264.156554 
L 380.612373 264.086606 
L 382.180827 263.788292 
L 382.964333 263.474677 
L 384.336551 262.805804 
L 384.9635 262.792412 
L 385.865325 263.106834 
L 386.570913 263.550416 
L 387.197862 263.873733 
L 388.295925 263.994816 
L 389.354307 264.101691 
L 390.725803 264.185325 
L 393.195362 264.160604 
L 393.979589 264.167913 
L 395.390765 264.234834 
L 396.566745 264.241811 
L 398.487273 264.17246 
L 398.487273 264.17246 
" clip-path="url(#pe3e53beca5)" style="fill: none; stroke: #d62728; stroke-width: 1.5; stroke-linecap: square"/>
   </g>
   <g id="line2d_10">
    <path d="M 73.832727 291.489236 
L 74.126716 292.029322 
L 74.361907 292.082135 
L 74.753893 292.138729 
L 75.263473 292.475484 
L 75.459466 292.3779 
L 75.929848 292.154897 
L 76.753017 292.392094 
L 77.047006 292.522128 
L 77.47819 292.340607 
L 77.674183 292.442151 
L 77.909374 292.555302 
L 78.183764 292.534221 
L 78.497352 292.640271 
L 79.261723 292.341666 
L 79.496914 292.573299 
L 79.790903 292.72338 
L 80.006495 292.6092 
L 80.39848 292.237003 
L 80.731668 292.243651 
L 81.319646 292.133195 
L 81.888024 292.27193 
L 82.319208 292.081346 
L 82.573998 292.093557 
L 83.534362 291.551194 
L 83.808752 291.542131 
L 84.92591 290.470749 
L 85.376693 289.9828 
L 85.788277 289.645022 
L 86.043068 289.22604 
L 86.317457 288.316656 
L 87.983395 282.021796 
L 88.316582 280.247692 
L 89.316145 271.66986 
L 89.786527 268.533159 
L 89.96292 268.305124 
L 90.139314 268.462244 
L 90.609696 269.287037 
L 90.844887 270.94977 
L 92.334431 284.225622 
L 92.844012 286.865597 
L 93.725979 289.599985 
L 94.255159 290.489818 
L 94.49035 290.637403 
L 94.686342 290.767546 
L 95.489912 291.737264 
L 95.705504 291.915996 
L 95.999493 292.077536 
L 96.60707 292.131214 
L 96.822662 292.159639 
L 97.018655 292.216814 
L 97.567434 292.565427 
L 98.096614 292.590031 
L 98.331805 292.650522 
L 98.74339 292.728486 
L 99.174574 292.739916 
L 99.448963 292.831713 
L 99.782151 293.015155 
L 100.291731 292.860567 
L 100.526923 292.873527 
L 100.781713 293.12361 
L 100.997305 293.199117 
L 101.742077 293.060625 
L 102.271257 293.186915 
L 103.623606 293.385074 
L 103.917595 293.42615 
L 104.505573 293.270271 
L 104.779963 293.27222 
L 105.015154 293.310236 
L 105.36794 293.476424 
L 105.838323 293.40035 
L 106.289106 293.438651 
L 106.524297 293.439894 
L 106.779087 293.481889 
L 107.915845 293.125823 
L 108.621418 292.941142 
L 109.072201 292.564491 
L 109.89537 292.102642 
L 110.228558 291.728339 
L 110.659741 291.020227 
L 112.01209 288.54832 
L 112.56087 288.168363 
L 112.854859 288.604628 
L 113.736825 290.026302 
L 114.128811 290.612581 
L 114.501197 291.153156 
L 115.579156 291.621445 
L 115.794748 291.469094 
L 116.127935 291.264223 
L 116.441524 291.136917 
L 116.892307 290.795994 
L 117.166696 291.028881 
L 117.87227 291.540432 
L 118.166259 291.588042 
L 118.440648 291.632369 
L 119.146222 292.317655 
L 119.440211 292.323506 
L 119.714601 292.403747 
L 119.930192 292.423815 
L 120.302578 292.690549 
L 120.616167 292.696602 
L 121.086549 292.60337 
L 121.282542 292.602886 
L 121.85092 293.013539 
L 122.223306 292.863351 
L 122.478097 292.744424 
L 123.124872 293.015813 
L 123.98724 292.585281 
L 124.24203 292.633382 
L 124.575218 292.763339 
L 125.280791 292.266098 
L 125.947166 291.367816 
L 126.554743 290.731323 
L 127.475908 288.307542 
L 129.083048 282.789272 
L 129.514232 282.701348 
L 129.710224 282.830979 
L 129.965015 283.417313 
L 130.396199 284.580521 
L 131.591754 288.727246 
L 132.297327 290.127693 
L 133.0029 291.026089 
L 133.257691 291.121744 
L 133.688875 291.127146 
L 134.041661 291.40804 
L 134.276852 291.508494 
L 135.492007 291.551449 
L 136.177981 291.6308 
L 136.432771 291.713276 
L 137.549929 292.118508 
L 138.098709 292.386164 
L 139.11787 292.644165 
L 140.372223 292.759906 
L 140.901403 292.53207 
L 141.175793 292.621145 
L 141.332587 292.570133 
L 141.665774 292.304233 
L 141.959763 292.380196 
L 142.31255 291.969394 
L 142.606539 291.752464 
L 143.586502 291.595713 
L 144.233278 291.616327 
L 144.409671 291.609725 
L 144.644862 291.558368 
L 145.252439 291.774575 
L 146.271601 291.954447 
L 146.526391 292.058586 
L 147.212366 292.415324 
L 147.62395 292.381781 
L 148.231527 292.656551 
L 148.584314 292.895525 
L 149.270288 293.001754 
L 149.779869 293.076952 
L 150.191454 293.174879 
L 150.583439 293.254988 
L 150.838229 293.271294 
L 151.132218 293.254845 
L 151.543803 293.364252 
L 151.837792 293.3559 
L 152.092582 293.398092 
L 152.347372 293.455984 
L 152.602163 293.466583 
L 153.366534 293.301731 
L 154.01331 292.998452 
L 154.307299 292.761396 
L 154.54249 292.641428 
L 154.816879 292.662005 
L 155.07167 292.318739 
L 155.679247 291.523839 
L 155.934037 291.679074 
L 156.306423 291.776401 
L 156.522015 291.593969 
L 156.835603 291.360587 
L 157.443181 291.517428 
L 157.776368 291.776487 
L 158.109556 291.7431 
L 158.540739 291.858533 
L 159.030721 292.20243 
L 159.32471 292.34426 
L 159.912688 292.167689 
L 160.461467 292.5349 
L 160.931849 292.21635 
L 161.696221 292.280937 
L 162.107805 292.344613 
L 162.421393 292.30304 
L 162.832978 292.435061 
L 163.499353 292.612463 
L 163.930536 292.543919 
L 164.400919 292.659671 
L 164.714507 292.553783 
L 165.576874 291.688793 
L 166.890025 289.185552 
L 167.419205 288.205479 
L 167.889587 287.869902 
L 168.046382 287.88307 
L 168.751955 288.677076 
L 169.496727 290.104368 
L 169.790716 290.56033 
L 170.47669 292.031813 
L 171.00587 292.639488 
L 171.652646 293.171859 
L 171.887837 293.209072 
L 172.33862 293.494816 
L 172.691407 293.59463 
L 173.161789 293.746731 
L 173.514576 293.745143 
L 173.906561 293.784354 
L 174.122153 293.807691 
L 174.670932 293.579735 
L 174.964921 293.72964 
L 175.278509 293.808775 
L 175.572498 293.816876 
L 176.023281 293.837573 
L 176.258472 293.887347 
L 176.650458 294.026205 
L 177.336432 294.000433 
L 177.532425 293.984973 
L 177.846013 293.854349 
L 178.296796 294.090928 
L 179.021968 294.333755 
L 179.217961 294.30948 
L 179.668744 294.036873 
L 179.923535 294.159935 
L 180.256722 294.279405 
L 181.079891 294.389578 
L 181.805064 294.395675 
L 182.118652 294.397101 
L 182.922222 294.621116 
L 183.412203 294.443919 
L 184.392166 294.548787 
L 185.783714 294.51843 
L 186.273696 294.739424 
L 186.744078 294.610708 
L 187.136063 294.624307 
L 187.626045 294.597599 
L 188.01803 294.438849 
L 188.410015 294.552657 
L 188.919596 294.490962 
L 189.193986 294.477137 
L 189.762364 294.612049 
L 190.467938 294.70145 
L 190.722728 294.702964 
L 191.251908 294.590565 
L 191.683092 294.712156 
L 191.957482 294.691318 
L 192.310268 294.738608 
L 193.545022 294.295246 
L 194.66218 294.069592 
L 194.93657 294.023208 
L 195.250158 294.11229 
L 195.877334 293.858327 
L 196.190922 293.760125 
L 196.504511 293.710751 
L 198.11165 293.642346 
L 198.758426 293.84989 
L 199.111212 293.752641 
L 199.463999 293.961947 
L 199.97358 294.318107 
L 200.659554 294.425242 
L 201.188734 294.602894 
L 201.521922 294.444578 
L 201.953105 294.484717 
L 202.403889 294.488887 
L 203.325054 294.643762 
L 203.579844 294.514932 
L 203.795436 294.484953 
L 204.187421 294.508902 
L 204.50101 294.503294 
L 204.697002 294.449138 
L 205.01059 294.340973 
L 205.578969 294.565461 
L 206.08855 294.292839 
L 206.34334 294.344872 
L 206.637329 294.387926 
L 207.225307 294.291707 
L 208.538458 294.370321 
L 208.852046 294.219154 
L 209.498822 294.392215 
L 209.79281 294.426222 
L 210.0672 294.429268 
L 210.380788 294.379378 
L 210.890369 294.432555 
L 211.439148 294.014677 
L 211.791935 294.097965 
L 212.20352 294.248762 
L 212.830696 294.019133 
L 214.751424 293.042053 
L 215.770585 293.13945 
L 216.123372 293.189234 
L 217.710912 293.874828 
L 217.946104 293.907683 
L 218.338089 293.895642 
L 218.749673 293.969528 
L 218.965265 294.00402 
L 219.37685 294.230987 
L 219.788434 294.089938 
L 220.43521 294.199243 
L 220.631203 294.204671 
L 221.865956 293.700107 
L 222.238342 293.699581 
L 222.453934 293.774075 
L 222.728324 293.825662 
L 223.120309 293.666356 
L 223.3555 293.582085 
L 223.551493 293.806582 
L 223.806283 293.986977 
L 225.021437 293.944881 
L 225.49182 293.987281 
L 226.883367 293.931824 
L 227.07936 293.978467 
L 227.60854 293.730285 
L 228.059323 293.427517 
L 228.314113 293.380505 
L 228.608102 293.305892 
L 229.117683 293.071417 
L 229.352874 293.001144 
L 229.960451 292.706315 
L 230.25444 292.791282 
L 230.764021 292.719397 
L 230.979613 292.747792 
L 231.391198 292.59713 
L 231.822381 292.896117 
L 232.351561 293.054332 
L 232.547554 293.140036 
L 233.135532 293.552143 
L 233.586315 293.584989 
L 234.017499 293.87072 
L 234.52708 294.098474 
L 234.919065 294.131042 
L 235.448245 294.11512 
L 235.899028 294.152726 
L 236.212616 294.101005 
L 236.565403 294.078072 
L 236.91819 294.052899 
L 237.212179 293.959863 
L 237.858954 293.880918 
L 238.074546 293.891279 
L 238.721322 294.066452 
L 239.152505 293.930545 
L 239.975675 294.012352 
L 240.700847 294.270264 
L 240.975237 294.255325 
L 241.288825 294.189259 
L 242.131593 294.38863 
L 242.523579 294.362589 
L 242.817568 294.393714 
L 243.268351 294.29209 
L 243.523141 294.325584 
L 244.013123 294.397644 
L 244.307111 294.26173 
L 244.679497 294.09803 
L 244.973486 294.180856 
L 245.287075 294.063581 
L 245.659461 294.069308 
L 245.992648 293.979955 
L 246.345435 293.968111 
L 246.757019 293.672091 
L 247.227402 293.625382 
L 247.423394 293.482739 
L 247.717383 293.238996 
L 248.246563 293.338083 
L 248.560151 293.198815 
L 249.108931 293.310774 
L 250.010497 293.148186 
L 250.245688 293.076908 
L 250.814067 293.318166 
L 251.343247 292.88483 
L 251.637236 292.92357 
L 252.04882 292.785422 
L 252.675997 292.921681 
L 253.067982 292.921856 
L 254.008746 293.200615 
L 254.302735 293.224783 
L 254.577125 293.40746 
L 254.831915 293.554071 
L 255.459092 293.401703 
L 256.184265 293.629341 
L 257.595411 293.57697 
L 258.242187 293.39364 
L 258.575375 293.43786 
L 258.869363 293.332387 
L 259.104555 293.323131 
L 259.476941 293.483807 
L 259.966922 293.719129 
L 260.260911 293.782199 
L 260.848889 293.597176 
L 261.044882 293.775611 
L 261.299672 293.886477 
L 262.005245 293.890628 
L 262.926411 294.172307 
L 263.298797 294.257253 
L 263.651583 294.15052 
L 264.455153 293.927458 
L 264.749142 293.834266 
L 264.984333 293.827814 
L 265.33712 293.858068 
L 265.61151 293.809258 
L 266.101491 293.930856 
L 267.120653 293.896721 
L 267.45384 294.105924 
L 267.787028 294.097981 
L 268.394605 294.092368 
L 268.610197 294.224312 
L 268.825789 294.31976 
L 269.511763 294.098091 
L 269.86455 294.11687 
L 270.256535 294.073443 
L 270.472127 294.053212 
L 270.726917 294.006584 
L 271.001307 293.980382 
L 271.236498 293.964172 
L 271.648083 293.932126 
L 272.000869 293.929092 
L 272.314457 293.89729 
L 273.137626 293.967503 
L 273.470814 294.050096 
L 274.254784 293.938542 
L 274.783965 294.258705 
L 275.136751 294.261881 
L 275.567935 294.204718 
L 276.371505 294.441342 
L 276.665494 294.519298 
L 277.03788 294.448684 
L 277.273071 294.518602 
L 277.763052 294.585699 
L 278.723416 294.575115 
L 279.115401 294.589146 
L 279.370192 294.67952 
L 279.899372 294.742585 
L 280.154162 294.670094 
L 280.781339 294.454372 
L 281.976894 294.632227 
L 282.251283 294.548959 
L 282.466875 294.527002 
L 282.780464 294.561261 
L 283.172449 294.505038 
L 283.525236 294.523897 
L 284.054416 294.393321 
L 284.818787 294.541808 
L 285.759551 294.520286 
L 286.32793 294.232792 
L 286.543522 294.396091 
L 286.817912 294.508863 
L 287.268695 294.351708 
L 287.503886 294.334226 
L 287.895871 294.448064 
L 288.738639 294.232007 
L 289.013029 294.253624 
L 289.679404 294.065661 
L 289.934194 294.132953 
L 290.874959 293.978547 
L 291.188547 294.101219 
L 291.678529 294.216034 
L 292.070514 294.147218 
L 292.580095 294.244155 
L 293.24647 294.41916 
L 293.520859 294.429622 
L 293.991242 294.618078 
L 294.246032 294.674044 
L 294.638017 294.77795 
L 295.127999 294.822454 
L 295.441587 294.970158 
L 297.244719 294.904561 
L 297.558307 294.860511 
L 298.02869 294.851117 
L 298.989054 294.781666 
L 299.537833 294.611744 
L 299.831822 294.680113 
L 300.223807 294.529797 
L 300.694189 294.518885 
L 302.693314 294.241845 
L 303.046101 294.340966 
L 303.398888 294.192833 
L 304.006465 294.273059 
L 304.359251 294.412805 
L 304.868832 294.434133 
L 305.084424 294.550106 
L 305.339215 294.629514 
L 305.770398 294.515591 
L 306.005589 294.454169 
L 306.593567 294.799973 
L 306.809159 294.791744 
L 307.436336 294.565148 
L 308.024314 294.720464 
L 308.279104 294.609958 
L 308.553494 294.570641 
L 308.90628 294.885313 
L 309.102273 294.923024 
L 309.631453 294.693464 
L 310.435023 294.930355 
L 311.120997 294.923756 
L 311.552181 295.096478 
L 311.806971 295.101699 
L 312.551743 294.813854 
L 312.884931 295.012821 
L 313.198519 295.060838 
L 314.335276 294.973184 
L 314.570467 294.948592 
L 314.884055 295.001349 
L 315.236842 295.037166 
L 315.57003 294.961435 
L 315.805221 294.980004 
L 316.158007 295.042364 
L 316.589191 294.904158 
L 316.981176 295.060369 
L 317.471158 295.01324 
L 317.902342 294.946631 
L 318.451121 294.722309 
L 319.411485 295.031642 
L 320.33265 295.003899 
L 320.783433 294.981157 
L 321.13622 295.00882 
L 321.469408 294.918108 
L 322.155382 295.234514 
L 322.74336 295.046122 
L 323.605727 295.138713 
L 323.860518 295.110723 
L 324.3309 295.25658 
L 324.997275 295.231038 
L 325.428459 295.235201 
L 325.820444 295.202587 
L 326.212429 295.216058 
L 326.682811 295.245696 
L 326.9964 295.455511 
L 327.486381 295.347731 
L 327.78037 295.348762 
L 328.56434 295.333368 
L 328.975925 295.356303 
L 329.563903 295.267217 
L 329.857892 295.286271 
L 330.269476 295.207193 
L 330.759458 295.336116 
L 331.367035 295.400655 
L 331.719822 295.216539 
L 332.092208 295.100673 
L 332.386197 295.152821 
L 332.954575 295.426705 
L 334.130531 295.263489 
L 334.404921 295.367055 
L 335.130093 295.429401 
L 335.463281 295.463155 
L 336.070858 295.338681 
L 336.482442 295.356234 
L 336.992023 295.221257 
L 338.069983 295.2294 
L 338.736358 295.073462 
L 339.167541 295.155474 
L 339.500729 295.021778 
L 340.990273 295.041717 
L 342.185828 295.26868 
L 342.832604 295.104463 
L 343.675372 295.181542 
L 344.655335 295.102497 
L 345.694096 295.21715 
L 346.027283 295.272314 
L 346.791655 295.115155 
L 347.085643 295.098446 
L 349.417956 295.101192 
L 349.751143 295.104138 
L 350.123529 295.08568 
L 350.417518 295.12728 
L 350.9075 294.943236 
L 351.260286 295.100264 
L 351.534676 295.122525 
L 351.887463 295.166028 
L 352.122654 295.142227 
L 352.318647 295.193866 
L 352.671433 295.338719 
L 353.102617 295.27423 
L 353.357407 295.259556 
L 353.768992 295.134563 
L 355.023345 295.259699 
L 355.297734 295.112722 
L 355.885712 295.259275 
L 356.238499 295.229364 
L 356.904874 295.29486 
L 357.375256 295.210336 
L 360.530737 295.132491 
L 361.00112 295.126501 
L 361.981083 295.225527 
L 362.745454 295.267558 
L 363.039443 295.288629 
L 363.64702 295.179664 
L 363.960608 295.048548 
L 365.175763 295.124125 
L 365.724542 295.065719 
L 366.488913 295.038614 
L 366.743704 295.069728 
L 367.410079 295.182765 
L 367.860862 294.984437 
L 368.370442 295.194525 
L 368.70363 294.978798 
L 368.95842 294.963216 
L 369.448402 295.031128 
L 369.859986 295.135143 
L 370.506762 295.146672 
L 370.996744 295.047656 
L 372.917471 295.011849 
L 373.329056 295.171755 
L 373.897434 295.081498 
L 374.916596 295.058705 
L 375.426177 295.005023 
L 375.857361 295.214377 
L 376.210147 295.175552 
L 376.582533 295.170738 
L 376.856923 295.133028 
L 377.072515 295.155205 
L 377.425302 295.238047 
L 378.54246 295.243319 
L 379.012842 295.341031 
L 379.698816 295.277254 
L 380.267195 295.150795 
L 381.305956 295.355905 
L 381.580345 295.305066 
L 382.109525 295.064588 
L 382.481911 295.164805 
L 382.834698 295.215932 
L 383.226683 295.135791 
L 383.814661 295.186375 
L 384.187047 295.153312 
L 384.696628 295.128585 
L 386.480161 295.300616 
L 387.185734 295.159394 
L 387.57772 295.231121 
L 388.048102 295.261223 
L 388.302892 295.260927 
L 388.557683 295.232479 
L 388.851672 295.239314 
L 389.302455 295.275318 
L 390.184421 295.22185 
L 390.517609 295.156181 
L 391.046789 295.185903 
L 391.399576 294.999061 
L 391.850359 295.150044 
L 392.222745 295.152222 
L 393.614292 295.112117 
L 393.908281 295.146365 
L 394.182671 295.121842 
L 394.496259 295.189195 
L 395.201833 294.997781 
L 395.848608 295.094943 
L 396.103399 295.127891 
L 396.671777 295.178021 
L 397.710538 295.026327 
L 398.082924 295.034636 
L 398.376913 295.043339 
L 398.474909 295.03223 
L 398.474909 295.03223 
" clip-path="url(#pe3e53beca5)" style="fill: none; stroke: #9467bd; stroke-width: 1.5; stroke-linecap: square"/>
   </g>
   <g id="patch_3">
    <path d="M 57.6 307.584 
L 57.6 41.472 
" style="fill: none; stroke: #000000; stroke-width: 0.8; stroke-linejoin: miter; stroke-linecap: square"/>
   </g>
   <g id="patch_4">
    <path d="M 414.72 307.584 
L 414.72 41.472 
" style="fill: none; stroke: #000000; stroke-width: 0.8; stroke-linejoin: miter; stroke-linecap: square"/>
   </g>
   <g id="patch_5">
    <path d="M 57.6 307.584 
L 414.72 307.584 
" style="fill: none; stroke: #000000; stroke-width: 0.8; stroke-linejoin: miter; stroke-linecap: square"/>
   </g>
   <g id="patch_6">
    <path d="M 57.6 41.472 
L 414.72 41.472 
" style="fill: none; stroke: #000000; stroke-width: 0.8; stroke-linejoin: miter; stroke-linecap: square"/>
   </g>
   <g id="legend_1">
    <g id="patch_7">
     <path d="M 64.6 31.14976 
L 407.72 31.14976 
Q 409.72 31.14976 409.72 29.14976 
L 409.72 15.471635 
Q 409.72 13.471635 407.72 13.471635 
L 64.6 13.471635 
Q 62.6 13.471635 62.6 15.471635 
L 62.6 29.14976 
Q 62.6 31.14976 64.6 31.14976 
z
" style="fill: #ffffff; opacity: 0.8; stroke: #cccccc; stroke-linejoin: miter"/>
    </g>
    <g id="line2d_11">
     <path d="M 66.6 21.570072 
L 76.6 21.570072 
L 86.6 21.570072 
" style="fill: none; stroke: #1f77b4; stroke-width: 1.5; stroke-linecap: square"/>
    </g>
    <g id="text_8">
     <!-- CAT-3 -->
     <g transform="translate(94.6 25.070072)scale(0.1 -0.1)">
      <defs>
       <path id="DejaVuSans-43" d="M 4122 4306 
L 4122 3641 
Q 3803 3938 3442 4084 
Q 3081 4231 2675 4231 
Q 1875 4231 1450 3742 
Q 1025 3253 1025 2328 
Q 1025 1406 1450 917 
Q 1875 428 2675 428 
Q 3081 428 3442 575 
Q 3803 722 4122 1019 
L 4122 359 
Q 3791 134 3420 21 
Q 3050 -91 2638 -91 
Q 1578 -91 968 557 
Q 359 1206 359 2328 
Q 359 3453 968 4101 
Q 1578 4750 2638 4750 
Q 3056 4750 3426 4639 
Q 3797 4528 4122 4306 
z
" transform="scale(0.015625)"/>
       <path id="DejaVuSans-41" d="M 2188 4044 
L 1331 1722 
L 3047 1722 
L 2188 4044 
z
M 1831 4666 
L 2547 4666 
L 4325 0 
L 3669 0 
L 3244 1197 
L 1141 1197 
L 716 0 
L 50 0 
L 1831 4666 
z
" transform="scale(0.015625)"/>
       <path id="DejaVuSans-54" d="M -19 4666 
L 3928 4666 
L 3928 4134 
L 2272 4134 
L 2272 0 
L 1638 0 
L 1638 4134 
L -19 4134 
L -19 4666 
z
" transform="scale(0.015625)"/>
       <path id="DejaVuSans-2d" d="M 313 2009 
L 1997 2009 
L 1997 1497 
L 313 1497 
L 313 2009 
z
" transform="scale(0.015625)"/>
      </defs>
      <use xlink:href="#DejaVuSans-43"/>
      <use xlink:href="#DejaVuSans-41" x="69.824219"/>
      <use xlink:href="#DejaVuSans-54" x="130.482422"/>
      <use xlink:href="#DejaVuSans-2d" x="182.441406"/>
      <use xlink:href="#DejaVuSans-33" x="218.525391"/>
     </g>
    </g>
    <g id="line2d_12">
     <path d="M 129.062031 21.570072 
L 139.062031 21.570072 
L 149.062031 21.570072 
" style="fill: none; stroke: #ff7f0e; stroke-width: 1.5; stroke-linecap: square"/>
    </g>
    <g id="text_9">
     <!-- CAT-2 -->
     <g transform="translate(157.062031 25.070072)scale(0.1 -0.1)">
      <use xlink:href="#DejaVuSans-43"/>
      <use xlink:href="#DejaVuSans-41" x="69.824219"/>
      <use xlink:href="#DejaVuSans-54" x="130.482422"/>
      <use xlink:href="#DejaVuSans-2d" x="182.441406"/>
      <use xlink:href="#DejaVuSans-32" x="218.525391"/>
     </g>
    </g>
    <g id="line2d_13">
     <path d="M 191.524063 21.570072 
L 201.524063 21.570072 
L 211.524063 21.570072 
" style="fill: none; stroke: #2ca02c; stroke-width: 1.5; stroke-linecap: square"/>
    </g>
    <g id="text_10">
     <!-- CAT-1 -->
     <g transform="translate(219.524063 25.070072)scale(0.1 -0.1)">
      <use xlink:href="#DejaVuSans-43"/>
      <use xlink:href="#DejaVuSans-41" x="69.824219"/>
      <use xlink:href="#DejaVuSans-54" x="130.482422"/>
      <use xlink:href="#DejaVuSans-2d" x="182.441406"/>
      <use xlink:href="#DejaVuSans-31" x="218.525391"/>
     </g>
    </g>
    <g id="line2d_14">
     <path d="M 253.986094 21.570072 
L 263.986094 21.570072 
L 273.986094 21.570072 
" style="fill: none; stroke: #d62728; stroke-width: 1.5; stroke-linecap: square"/>
    </g>
    <g id="text_11">
     <!-- TiO2-P25 -->
     <g transform="translate(281.986094 25.070072)scale(0.1 -0.1)">
      <defs>
       <path id="DejaVuSans-4f" d="M 2522 4238 
Q 1834 4238 1429 3725 
Q 1025 3213 1025 2328 
Q 1025 1447 1429 934 
Q 1834 422 2522 422 
Q 3209 422 3611 934 
Q 4013 1447 4013 2328 
Q 4013 3213 3611 3725 
Q 3209 4238 2522 4238 
z
M 2522 4750 
Q 3503 4750 4090 4092 
Q 4678 3434 4678 2328 
Q 4678 1225 4090 567 
Q 3503 -91 2522 -91 
Q 1538 -91 948 565 
Q 359 1222 359 2328 
Q 359 3434 948 4092 
Q 1538 4750 2522 4750 
z
" transform="scale(0.015625)"/>
       <path id="DejaVuSans-50" d="M 1259 4147 
L 1259 2394 
L 2053 2394 
Q 2494 2394 2734 2622 
Q 2975 2850 2975 3272 
Q 2975 3691 2734 3919 
Q 2494 4147 2053 4147 
L 1259 4147 
z
M 628 4666 
L 2053 4666 
Q 2838 4666 3239 4311 
Q 3641 3956 3641 3272 
Q 3641 2581 3239 2228 
Q 2838 1875 2053 1875 
L 1259 1875 
L 1259 0 
L 628 0 
L 628 4666 
z
" transform="scale(0.015625)"/>
      </defs>
      <use xlink:href="#DejaVuSans-54"/>
      <use xlink:href="#DejaVuSans-69" x="57.958984"/>
      <use xlink:href="#DejaVuSans-4f" x="85.742188"/>
      <use xlink:href="#DejaVuSans-32" x="164.453125"/>
      <use xlink:href="#DejaVuSans-2d" x="228.076172"/>
      <use xlink:href="#DejaVuSans-50" x="264.160156"/>
      <use xlink:href="#DejaVuSans-32" x="324.462891"/>
      <use xlink:href="#DejaVuSans-35" x="388.085938"/>
     </g>
    </g>
    <g id="line2d_15">
     <path d="M 333.404375 21.570072 
L 343.404375 21.570072 
L 353.404375 21.570072 
" style="fill: none; stroke: #9467bd; stroke-width: 1.5; stroke-linecap: square"/>
    </g>
    <g id="text_12">
     <!-- ZIF-8-MK -->
     <g transform="translate(361.404375 25.070072)scale(0.1 -0.1)">
      <defs>
       <path id="DejaVuSans-5a" d="M 359 4666 
L 4025 4666 
L 4025 4184 
L 1075 531 
L 4097 531 
L 4097 0 
L 288 0 
L 288 481 
L 3238 4134 
L 359 4134 
L 359 4666 
z
" transform="scale(0.015625)"/>
       <path id="DejaVuSans-46" d="M 628 4666 
L 3309 4666 
L 3309 4134 
L 1259 4134 
L 1259 2759 
L 3109 2759 
L 3109 2228 
L 1259 2228 
L 1259 0 
L 628 0 
L 628 4666 
z
" transform="scale(0.015625)"/>
       <path id="DejaVuSans-38" d="M 2034 2216 
Q 1584 2216 1326 1975 
Q 1069 1734 1069 1313 
Q 1069 891 1326 650 
Q 1584 409 2034 409 
Q 2484 409 2743 651 
Q 3003 894 3003 1313 
Q 3003 1734 2745 1975 
Q 2488 2216 2034 2216 
z
M 1403 2484 
Q 997 2584 770 2862 
Q 544 3141 544 3541 
Q 544 4100 942 4425 
Q 1341 4750 2034 4750 
Q 2731 4750 3128 4425 
Q 3525 4100 3525 3541 
Q 3525 3141 3298 2862 
Q 3072 2584 2669 2484 
Q 3125 2378 3379 2068 
Q 3634 1759 3634 1313 
Q 3634 634 3220 271 
Q 2806 -91 2034 -91 
Q 1263 -91 848 271 
Q 434 634 434 1313 
Q 434 1759 690 2068 
Q 947 2378 1403 2484 
z
M 1172 3481 
Q 1172 3119 1398 2916 
Q 1625 2713 2034 2713 
Q 2441 2713 2670 2916 
Q 2900 3119 2900 3481 
Q 2900 3844 2670 4047 
Q 2441 4250 2034 4250 
Q 1625 4250 1398 4047 
Q 1172 3844 1172 3481 
z
" transform="scale(0.015625)"/>
       <path id="DejaVuSans-4d" d="M 628 4666 
L 1569 4666 
L 2759 1491 
L 3956 4666 
L 4897 4666 
L 4897 0 
L 4281 0 
L 4281 4097 
L 3078 897 
L 2444 897 
L 1241 4097 
L 1241 0 
L 628 0 
L 628 4666 
z
" transform="scale(0.015625)"/>
       <path id="DejaVuSans-4b" d="M 628 4666 
L 1259 4666 
L 1259 2694 
L 3353 4666 
L 4166 4666 
L 1850 2491 
L 4331 0 
L 3500 0 
L 1259 2247 
L 1259 0 
L 628 0 
L 628 4666 
z
" transform="scale(0.015625)"/>
      </defs>
      <use xlink:href="#DejaVuSans-5a"/>
      <use xlink:href="#DejaVuSans-49" x="68.505859"/>
      <use xlink:href="#DejaVuSans-46" x="97.998047"/>
      <use xlink:href="#DejaVuSans-2d" x="155.517578"/>
      <use xlink:href="#DejaVuSans-38" x="191.601562"/>
      <use xlink:href="#DejaVuSans-2d" x="255.224609"/>
      <use xlink:href="#DejaVuSans-4d" x="291.308594"/>
      <use xlink:href="#DejaVuSans-4b" x="377.587891"/>
     </g>
    </g>
   </g>
  </g>
 </g>
 <defs>
  <clipPath id="pe3e53beca5">
   <rect x="57.6" y="41.472" width="357.12" height="266.112"/>
  </clipPath>
 </defs>
</svg>
